%TF.GenerationSoftware,KiCad,Pcbnew,5.1.9+dfsg1-1+deb11u1*%
%TF.CreationDate,2023-03-09T18:16:30+02:00*%
%TF.ProjectId,lora_digirepeater_micro,6c6f7261-5f64-4696-9769-726570656174,rev?*%
%TF.SameCoordinates,Original*%
%TF.FileFunction,Soldermask,Top*%
%TF.FilePolarity,Negative*%
%FSLAX46Y46*%
G04 Gerber Fmt 4.6, Leading zero omitted, Abs format (unit mm)*
G04 Created by KiCad (PCBNEW 5.1.9+dfsg1-1+deb11u1) date 2023-03-09 18:16:30*
%MOMM*%
%LPD*%
G01*
G04 APERTURE LIST*
%ADD10R,1.600000X1.600000*%
%ADD11C,1.600000*%
%ADD12R,1.500000X2.000000*%
%ADD13R,1.700000X1.700000*%
%ADD14O,1.700000X1.700000*%
%ADD15R,4.200000X1.350000*%
%ADD16R,3.600000X1.270000*%
G04 APERTURE END LIST*
D10*
%TO.C,U1*%
X114046000Y-105664000D03*
D11*
X116586000Y-105664000D03*
X119126000Y-105664000D03*
X121666000Y-105664000D03*
X124206000Y-105664000D03*
X126746000Y-105664000D03*
X129286000Y-105664000D03*
X131826000Y-105664000D03*
X134366000Y-105664000D03*
X136906000Y-105664000D03*
X139446000Y-105664000D03*
X141986000Y-105664000D03*
X141986000Y-90424000D03*
X139446000Y-90424000D03*
X136906000Y-90424000D03*
X134366000Y-90424000D03*
X131826000Y-90424000D03*
X129286000Y-90424000D03*
X126746000Y-90424000D03*
X124206000Y-90424000D03*
X121666000Y-90424000D03*
X119126000Y-90424000D03*
X116586000Y-90424000D03*
X114046000Y-90424000D03*
%TD*%
D12*
%TO.C,U2*%
X161432000Y-106044000D03*
X159432000Y-106044000D03*
X157432000Y-106044000D03*
X155432000Y-106044000D03*
X153432000Y-106044000D03*
X151432000Y-106044000D03*
X149432000Y-106044000D03*
X147432000Y-106044000D03*
X147432000Y-90044000D03*
X149432000Y-90044000D03*
X151432000Y-90044000D03*
X153432000Y-90044000D03*
X155432000Y-90044000D03*
X157432000Y-90044000D03*
X159432000Y-90044000D03*
X161432000Y-90044000D03*
%TD*%
D13*
%TO.C,J1*%
X113284000Y-99060000D03*
D14*
X113284000Y-96520000D03*
%TD*%
%TO.C,C1*%
G36*
G01*
X123477000Y-95170500D02*
X124427000Y-95170500D01*
G75*
G02*
X124677000Y-95420500I0J-250000D01*
G01*
X124677000Y-96095500D01*
G75*
G02*
X124427000Y-96345500I-250000J0D01*
G01*
X123477000Y-96345500D01*
G75*
G02*
X123227000Y-96095500I0J250000D01*
G01*
X123227000Y-95420500D01*
G75*
G02*
X123477000Y-95170500I250000J0D01*
G01*
G37*
G36*
G01*
X123477000Y-93095500D02*
X124427000Y-93095500D01*
G75*
G02*
X124677000Y-93345500I0J-250000D01*
G01*
X124677000Y-94020500D01*
G75*
G02*
X124427000Y-94270500I-250000J0D01*
G01*
X123477000Y-94270500D01*
G75*
G02*
X123227000Y-94020500I0J250000D01*
G01*
X123227000Y-93345500D01*
G75*
G02*
X123477000Y-93095500I250000J0D01*
G01*
G37*
%TD*%
%TO.C,C2*%
G36*
G01*
X119864001Y-102454500D02*
X116863999Y-102454500D01*
G75*
G02*
X116614000Y-102204501I0J249999D01*
G01*
X116614000Y-99979499D01*
G75*
G02*
X116863999Y-99729500I249999J0D01*
G01*
X119864001Y-99729500D01*
G75*
G02*
X120114000Y-99979499I0J-249999D01*
G01*
X120114000Y-102204501D01*
G75*
G02*
X119864001Y-102454500I-249999J0D01*
G01*
G37*
G36*
G01*
X119864001Y-96729500D02*
X116863999Y-96729500D01*
G75*
G02*
X116614000Y-96479501I0J249999D01*
G01*
X116614000Y-94254499D01*
G75*
G02*
X116863999Y-94004500I249999J0D01*
G01*
X119864001Y-94004500D01*
G75*
G02*
X120114000Y-94254499I0J-249999D01*
G01*
X120114000Y-96479501D01*
G75*
G02*
X119864001Y-96729500I-249999J0D01*
G01*
G37*
%TD*%
%TO.C,C3*%
G36*
G01*
X142019000Y-93095500D02*
X142969000Y-93095500D01*
G75*
G02*
X143219000Y-93345500I0J-250000D01*
G01*
X143219000Y-94020500D01*
G75*
G02*
X142969000Y-94270500I-250000J0D01*
G01*
X142019000Y-94270500D01*
G75*
G02*
X141769000Y-94020500I0J250000D01*
G01*
X141769000Y-93345500D01*
G75*
G02*
X142019000Y-93095500I250000J0D01*
G01*
G37*
G36*
G01*
X142019000Y-95170500D02*
X142969000Y-95170500D01*
G75*
G02*
X143219000Y-95420500I0J-250000D01*
G01*
X143219000Y-96095500D01*
G75*
G02*
X142969000Y-96345500I-250000J0D01*
G01*
X142019000Y-96345500D01*
G75*
G02*
X141769000Y-96095500I0J250000D01*
G01*
X141769000Y-95420500D01*
G75*
G02*
X142019000Y-95170500I250000J0D01*
G01*
G37*
%TD*%
D15*
%TO.C,J2*%
X166878000Y-100869000D03*
X166878000Y-95219000D03*
D16*
X167078000Y-98044000D03*
%TD*%
%TO.C,R1*%
G36*
G01*
X127275001Y-102517002D02*
X127275001Y-101617000D01*
G75*
G02*
X127525000Y-101367001I249999J0D01*
G01*
X128225002Y-101367001D01*
G75*
G02*
X128475001Y-101617000I0J-249999D01*
G01*
X128475001Y-102517002D01*
G75*
G02*
X128225002Y-102767001I-249999J0D01*
G01*
X127525000Y-102767001D01*
G75*
G02*
X127275001Y-102517002I0J249999D01*
G01*
G37*
G36*
G01*
X129275001Y-102517002D02*
X129275001Y-101617000D01*
G75*
G02*
X129525000Y-101367001I249999J0D01*
G01*
X130225002Y-101367001D01*
G75*
G02*
X130475001Y-101617000I0J-249999D01*
G01*
X130475001Y-102517002D01*
G75*
G02*
X130225002Y-102767001I-249999J0D01*
G01*
X129525000Y-102767001D01*
G75*
G02*
X129275001Y-102517002I0J249999D01*
G01*
G37*
%TD*%
%TO.C,R2*%
G36*
G01*
X134025001Y-102517002D02*
X134025001Y-101617000D01*
G75*
G02*
X134275000Y-101367001I249999J0D01*
G01*
X134975002Y-101367001D01*
G75*
G02*
X135225001Y-101617000I0J-249999D01*
G01*
X135225001Y-102517002D01*
G75*
G02*
X134975002Y-102767001I-249999J0D01*
G01*
X134275000Y-102767001D01*
G75*
G02*
X134025001Y-102517002I0J249999D01*
G01*
G37*
G36*
G01*
X132025001Y-102517002D02*
X132025001Y-101617000D01*
G75*
G02*
X132275000Y-101367001I249999J0D01*
G01*
X132975002Y-101367001D01*
G75*
G02*
X133225001Y-101617000I0J-249999D01*
G01*
X133225001Y-102517002D01*
G75*
G02*
X132975002Y-102767001I-249999J0D01*
G01*
X132275000Y-102767001D01*
G75*
G02*
X132025001Y-102517002I0J249999D01*
G01*
G37*
%TD*%
M02*
