M48
INCH,TZ
T1C0.0157
T2C0.0394
T3C0.0433
%
G90
G05
T1
X44600Y-36900
X45000Y-40000
X45900Y-36400
X46900Y-40800
X47900Y-36600
X47900Y-40800
X48400Y-38900
X50700Y-38800
X51900Y-38200
X52900Y-38200
X53900Y-38200
X54900Y-38200
X56900Y-37700
X56900Y-41600
X59600Y-36500
X60400Y-36500
X60700Y-38600
X61200Y-36500
X62700Y-36500
X62700Y-38600
X62800Y-40800
X63600Y-40800
X64700Y-41700
X64800Y-35500
X66000Y-35500
X66000Y-36500
X66000Y-40700
X66000Y-41700
T2
X44600Y-38000
X44600Y-39000
T3
X44900Y-35600
X44900Y-41600
X45900Y-35600
X45900Y-41600
X46900Y-35600
X46900Y-41600
X47900Y-35600
X47900Y-41600
X48900Y-35600
X48900Y-41600
X49900Y-35600
X49900Y-41600
X50900Y-35600
X50900Y-41600
X51900Y-35600
X51900Y-41600
X52900Y-35600
X52900Y-41600
X53900Y-35600
X53900Y-41600
X54900Y-35600
X54900Y-41600
X55900Y-35600
X55900Y-41600
T0
M30
