%TF.GenerationSoftware,KiCad,Pcbnew,5.1.9+dfsg1-1+deb11u1*%
%TF.CreationDate,2023-03-09T17:46:09+02:00*%
%TF.ProjectId,lora_digirepeater_micro,6c6f7261-5f64-4696-9769-726570656174,rev?*%
%TF.SameCoordinates,Original*%
%TF.FileFunction,Copper,L2,Bot*%
%TF.FilePolarity,Positive*%
%FSLAX46Y46*%
G04 Gerber Fmt 4.6, Leading zero omitted, Abs format (unit mm)*
G04 Created by KiCad (PCBNEW 5.1.9+dfsg1-1+deb11u1) date 2023-03-09 17:46:09*
%MOMM*%
%LPD*%
G01*
G04 APERTURE LIST*
%TA.AperFunction,ComponentPad*%
%ADD10R,1.600000X1.600000*%
%TD*%
%TA.AperFunction,ComponentPad*%
%ADD11C,1.600000*%
%TD*%
%TA.AperFunction,ComponentPad*%
%ADD12R,1.700000X1.700000*%
%TD*%
%TA.AperFunction,ComponentPad*%
%ADD13O,1.700000X1.700000*%
%TD*%
%TA.AperFunction,SMDPad,CuDef*%
%ADD14R,4.200000X1.350000*%
%TD*%
%TA.AperFunction,ViaPad*%
%ADD15C,1.100000*%
%TD*%
%TA.AperFunction,Conductor*%
%ADD16C,0.500000*%
%TD*%
%TA.AperFunction,Conductor*%
%ADD17C,0.250000*%
%TD*%
%TA.AperFunction,Conductor*%
%ADD18C,0.800000*%
%TD*%
%TA.AperFunction,Conductor*%
%ADD19C,0.254000*%
%TD*%
%TA.AperFunction,Conductor*%
%ADD20C,0.100000*%
%TD*%
G04 APERTURE END LIST*
D10*
%TO.P,U1,1*%
%TO.N,N/C*%
X114046000Y-105664000D03*
D11*
%TO.P,U1,2*%
X116586000Y-105664000D03*
%TO.P,U1,3*%
%TO.N,GND*%
X119126000Y-105664000D03*
%TO.P,U1,4*%
X121666000Y-105664000D03*
%TO.P,U1,5*%
%TO.N,DIO1*%
X124206000Y-105664000D03*
%TO.P,U1,6*%
%TO.N,DIO0*%
X126746000Y-105664000D03*
%TO.P,U1,7*%
%TO.N,NRST*%
X129286000Y-105664000D03*
%TO.P,U1,8*%
%TO.N,NSS*%
X131826000Y-105664000D03*
%TO.P,U1,9*%
%TO.N,N/C*%
X134366000Y-105664000D03*
%TO.P,U1,10*%
X136906000Y-105664000D03*
%TO.P,U1,11*%
X139446000Y-105664000D03*
%TO.P,U1,12*%
X141986000Y-105664000D03*
%TO.P,U1,13*%
X141986000Y-90424000D03*
%TO.P,U1,14*%
%TO.N,MOSI*%
X139446000Y-90424000D03*
%TO.P,U1,15*%
%TO.N,MISO*%
X136906000Y-90424000D03*
%TO.P,U1,16*%
%TO.N,SCK*%
X134366000Y-90424000D03*
%TO.P,U1,17*%
%TO.N,N/C*%
X131826000Y-90424000D03*
%TO.P,U1,18*%
X129286000Y-90424000D03*
%TO.P,U1,19*%
X126746000Y-90424000D03*
%TO.P,U1,20*%
%TO.N,VBAT*%
X124206000Y-90424000D03*
%TO.P,U1,21*%
%TO.N,+3V3*%
X121666000Y-90424000D03*
%TO.P,U1,22*%
%TO.N,N/C*%
X119126000Y-90424000D03*
%TO.P,U1,23*%
%TO.N,GND*%
X116586000Y-90424000D03*
%TO.P,U1,24*%
%TO.N,N/C*%
X114046000Y-90424000D03*
%TD*%
D12*
%TO.P,J1,1*%
%TO.N,+3V3*%
X113284000Y-99060000D03*
D13*
%TO.P,J1,2*%
%TO.N,GND*%
X113284000Y-96520000D03*
%TD*%
D14*
%TO.P,J2,2*%
%TO.N,GND*%
X166878000Y-100869000D03*
X166878000Y-95219000D03*
%TD*%
D15*
%TO.N,GND*%
X164592000Y-90170000D03*
X164338000Y-105918000D03*
X159258000Y-92710000D03*
X161544000Y-103632000D03*
X131826000Y-97028000D03*
X121666000Y-103632000D03*
X159258000Y-98044000D03*
X116586000Y-92456000D03*
X119126000Y-103632000D03*
X113284000Y-93726000D03*
X144526000Y-95758000D03*
X154178000Y-98044000D03*
X167640000Y-90170000D03*
X167640000Y-92710000D03*
X167640000Y-105918000D03*
X167640000Y-103378000D03*
X122936000Y-98806000D03*
X144526000Y-105664000D03*
%TO.N,MOSI*%
X139446000Y-97028000D03*
%TO.N,MISO*%
X136906000Y-97028000D03*
%TO.N,SCK*%
X134366000Y-97028000D03*
%TO.N,NSS*%
X159512000Y-103632000D03*
%TO.N,NRST*%
X155448000Y-92710000D03*
%TO.N,DIO1*%
X151384000Y-92710000D03*
%TO.N,+3V3*%
X114300000Y-101600000D03*
X121666000Y-92964000D03*
%TO.N,VBAT*%
X128778000Y-98552000D03*
%TO.N,DIO0*%
X153416000Y-92710000D03*
%TD*%
D16*
%TO.N,MOSI*%
X139446000Y-97028000D02*
X139446000Y-97028000D01*
D17*
X139446000Y-90424000D02*
X139700000Y-90678000D01*
D18*
X139446000Y-97028000D02*
X139446000Y-90424000D01*
D16*
%TO.N,MISO*%
X137160000Y-90678000D02*
X136906000Y-90424000D01*
X136906000Y-97028000D02*
X136906000Y-97028000D01*
D18*
X136906000Y-97028000D02*
X136906000Y-90424000D01*
D16*
%TO.N,SCK*%
X134620000Y-90678000D02*
X134366000Y-90424000D01*
X134366000Y-97028000D02*
X134366000Y-97028000D01*
X134366000Y-97028000D02*
X134366000Y-97028000D01*
D18*
X134366000Y-97028000D02*
X134366000Y-90424000D01*
%TO.N,NSS*%
X131826000Y-105664000D02*
X133858000Y-103632000D01*
X133858000Y-103632000D02*
X159512000Y-103632000D01*
%TO.N,NRST*%
X129286000Y-105664000D02*
X132842000Y-102108000D01*
X132842000Y-102108000D02*
X147574000Y-102108000D01*
X147574000Y-102108000D02*
X155448000Y-94234000D01*
X155448000Y-94234000D02*
X155448000Y-92710000D01*
%TO.N,DIO1*%
X124206000Y-105664000D02*
X131318000Y-98552000D01*
X131318000Y-98552000D02*
X146558000Y-98552000D01*
X151384000Y-93726000D02*
X151384000Y-92710000D01*
X146558000Y-98552000D02*
X151384000Y-93726000D01*
%TO.N,+3V3*%
X113284000Y-100584000D02*
X114300000Y-101600000D01*
X113284000Y-99060000D02*
X113284000Y-100584000D01*
X121666000Y-92964000D02*
X121666000Y-90424000D01*
%TO.N,VBAT*%
X124206000Y-90424000D02*
X124206000Y-92202000D01*
X124206000Y-92202000D02*
X124206000Y-93980000D01*
X124206000Y-93980000D02*
X128778000Y-98552000D01*
%TO.N,DIO0*%
X126746000Y-105664000D02*
X132080000Y-100330000D01*
X132080000Y-100330000D02*
X147066000Y-100330000D01*
X153416000Y-93980000D02*
X153416000Y-92710000D01*
X147066000Y-100330000D02*
X153416000Y-93980000D01*
%TD*%
D19*
%TO.N,GND*%
X113366273Y-89152320D02*
X113131241Y-89309363D01*
X112931363Y-89509241D01*
X112774320Y-89744273D01*
X112666147Y-90005426D01*
X112611000Y-90282665D01*
X112611000Y-90565335D01*
X112666147Y-90842574D01*
X112774320Y-91103727D01*
X112931363Y-91338759D01*
X113131241Y-91538637D01*
X113366273Y-91695680D01*
X113627426Y-91803853D01*
X113904665Y-91859000D01*
X114187335Y-91859000D01*
X114464574Y-91803853D01*
X114725727Y-91695680D01*
X114960759Y-91538637D01*
X115082694Y-91416702D01*
X115772903Y-91416702D01*
X115844486Y-91660671D01*
X116099996Y-91781571D01*
X116374184Y-91850300D01*
X116656512Y-91864217D01*
X116936130Y-91822787D01*
X117202292Y-91727603D01*
X117327514Y-91660671D01*
X117399097Y-91416702D01*
X116586000Y-90603605D01*
X115772903Y-91416702D01*
X115082694Y-91416702D01*
X115160637Y-91338759D01*
X115316915Y-91104872D01*
X115349329Y-91165514D01*
X115593298Y-91237097D01*
X116406395Y-90424000D01*
X115593298Y-89610903D01*
X115349329Y-89682486D01*
X115318806Y-89746992D01*
X115317680Y-89744273D01*
X115160637Y-89509241D01*
X114960759Y-89309363D01*
X114725727Y-89152320D01*
X114543888Y-89077000D01*
X116091059Y-89077000D01*
X115969708Y-89120397D01*
X115844486Y-89187329D01*
X115772903Y-89431298D01*
X116586000Y-90244395D01*
X117399097Y-89431298D01*
X117327514Y-89187329D01*
X117094345Y-89077000D01*
X118628112Y-89077000D01*
X118446273Y-89152320D01*
X118211241Y-89309363D01*
X118011363Y-89509241D01*
X117855085Y-89743128D01*
X117822671Y-89682486D01*
X117578702Y-89610903D01*
X116765605Y-90424000D01*
X117578702Y-91237097D01*
X117822671Y-91165514D01*
X117853194Y-91101008D01*
X117854320Y-91103727D01*
X118011363Y-91338759D01*
X118211241Y-91538637D01*
X118446273Y-91695680D01*
X118707426Y-91803853D01*
X118984665Y-91859000D01*
X119267335Y-91859000D01*
X119544574Y-91803853D01*
X119805727Y-91695680D01*
X120040759Y-91538637D01*
X120240637Y-91338759D01*
X120396000Y-91106241D01*
X120551363Y-91338759D01*
X120631001Y-91418397D01*
X120631000Y-92380042D01*
X120615866Y-92402692D01*
X120526539Y-92618348D01*
X120481000Y-92847288D01*
X120481000Y-93080712D01*
X120526539Y-93309652D01*
X120615866Y-93525308D01*
X120745550Y-93719394D01*
X120910606Y-93884450D01*
X121104692Y-94014134D01*
X121320348Y-94103461D01*
X121549288Y-94149000D01*
X121782712Y-94149000D01*
X122011652Y-94103461D01*
X122227308Y-94014134D01*
X122421394Y-93884450D01*
X122586450Y-93719394D01*
X122716134Y-93525308D01*
X122805461Y-93309652D01*
X122851000Y-93080712D01*
X122851000Y-92847288D01*
X122805461Y-92618348D01*
X122716134Y-92402692D01*
X122701000Y-92380042D01*
X122701000Y-91418396D01*
X122780637Y-91338759D01*
X122936000Y-91106241D01*
X123091363Y-91338759D01*
X123171001Y-91418397D01*
X123171001Y-92151153D01*
X123171000Y-92151163D01*
X123171001Y-93929163D01*
X123165994Y-93980000D01*
X123185977Y-94182895D01*
X123245160Y-94377993D01*
X123341266Y-94557797D01*
X123438197Y-94675907D01*
X123470605Y-94715396D01*
X123510092Y-94747803D01*
X127633225Y-98870936D01*
X127638539Y-98897652D01*
X127727866Y-99113308D01*
X127857550Y-99307394D01*
X128022606Y-99472450D01*
X128216692Y-99602134D01*
X128432348Y-99691461D01*
X128661288Y-99737000D01*
X128669289Y-99737000D01*
X124177290Y-104229000D01*
X124064665Y-104229000D01*
X123787426Y-104284147D01*
X123526273Y-104392320D01*
X123291241Y-104549363D01*
X123091363Y-104749241D01*
X122935085Y-104983128D01*
X122902671Y-104922486D01*
X122658702Y-104850903D01*
X121845605Y-105664000D01*
X122658702Y-106477097D01*
X122902671Y-106405514D01*
X122933194Y-106341008D01*
X122934320Y-106343727D01*
X123091363Y-106578759D01*
X123291241Y-106778637D01*
X123526273Y-106935680D01*
X123708112Y-107011000D01*
X122160941Y-107011000D01*
X122282292Y-106967603D01*
X122407514Y-106900671D01*
X122479097Y-106656702D01*
X121666000Y-105843605D01*
X120852903Y-106656702D01*
X120924486Y-106900671D01*
X121157655Y-107011000D01*
X119620941Y-107011000D01*
X119742292Y-106967603D01*
X119867514Y-106900671D01*
X119939097Y-106656702D01*
X119126000Y-105843605D01*
X118312903Y-106656702D01*
X118384486Y-106900671D01*
X118617655Y-107011000D01*
X117083888Y-107011000D01*
X117265727Y-106935680D01*
X117500759Y-106778637D01*
X117700637Y-106578759D01*
X117856915Y-106344872D01*
X117889329Y-106405514D01*
X118133298Y-106477097D01*
X118946395Y-105664000D01*
X119305605Y-105664000D01*
X120118702Y-106477097D01*
X120362671Y-106405514D01*
X120393971Y-106339364D01*
X120429329Y-106405514D01*
X120673298Y-106477097D01*
X121486395Y-105664000D01*
X120673298Y-104850903D01*
X120429329Y-104922486D01*
X120398029Y-104988636D01*
X120362671Y-104922486D01*
X120118702Y-104850903D01*
X119305605Y-105664000D01*
X118946395Y-105664000D01*
X118133298Y-104850903D01*
X117889329Y-104922486D01*
X117858806Y-104986992D01*
X117857680Y-104984273D01*
X117700637Y-104749241D01*
X117622694Y-104671298D01*
X118312903Y-104671298D01*
X119126000Y-105484395D01*
X119939097Y-104671298D01*
X120852903Y-104671298D01*
X121666000Y-105484395D01*
X122479097Y-104671298D01*
X122407514Y-104427329D01*
X122152004Y-104306429D01*
X121877816Y-104237700D01*
X121595488Y-104223783D01*
X121315870Y-104265213D01*
X121049708Y-104360397D01*
X120924486Y-104427329D01*
X120852903Y-104671298D01*
X119939097Y-104671298D01*
X119867514Y-104427329D01*
X119612004Y-104306429D01*
X119337816Y-104237700D01*
X119055488Y-104223783D01*
X118775870Y-104265213D01*
X118509708Y-104360397D01*
X118384486Y-104427329D01*
X118312903Y-104671298D01*
X117622694Y-104671298D01*
X117500759Y-104549363D01*
X117265727Y-104392320D01*
X117004574Y-104284147D01*
X116727335Y-104229000D01*
X116444665Y-104229000D01*
X116167426Y-104284147D01*
X115906273Y-104392320D01*
X115671241Y-104549363D01*
X115472643Y-104747961D01*
X115471812Y-104739518D01*
X115435502Y-104619820D01*
X115376537Y-104509506D01*
X115297185Y-104412815D01*
X115200494Y-104333463D01*
X115090180Y-104274498D01*
X114970482Y-104238188D01*
X114846000Y-104225928D01*
X113246000Y-104225928D01*
X113121518Y-104238188D01*
X113001820Y-104274498D01*
X112891506Y-104333463D01*
X112794815Y-104412815D01*
X112715463Y-104509506D01*
X112656498Y-104619820D01*
X112620188Y-104739518D01*
X112607928Y-104864000D01*
X112607928Y-106464000D01*
X112620188Y-106588482D01*
X112656498Y-106708180D01*
X112715463Y-106818494D01*
X112794815Y-106915185D01*
X112891506Y-106994537D01*
X112922306Y-107011000D01*
X110921000Y-107011000D01*
X110921000Y-98210000D01*
X111795928Y-98210000D01*
X111795928Y-99910000D01*
X111808188Y-100034482D01*
X111844498Y-100154180D01*
X111903463Y-100264494D01*
X111982815Y-100361185D01*
X112079506Y-100440537D01*
X112189820Y-100499502D01*
X112249001Y-100517454D01*
X112249001Y-100533163D01*
X112243994Y-100584000D01*
X112263977Y-100786895D01*
X112323160Y-100981993D01*
X112419266Y-101161797D01*
X112516197Y-101279907D01*
X112548605Y-101319396D01*
X112588092Y-101351802D01*
X113155225Y-101918935D01*
X113160539Y-101945652D01*
X113249866Y-102161308D01*
X113379550Y-102355394D01*
X113544606Y-102520450D01*
X113738692Y-102650134D01*
X113954348Y-102739461D01*
X114183288Y-102785000D01*
X114416712Y-102785000D01*
X114645652Y-102739461D01*
X114861308Y-102650134D01*
X115055394Y-102520450D01*
X115220450Y-102355394D01*
X115350134Y-102161308D01*
X115439461Y-101945652D01*
X115485000Y-101716712D01*
X115485000Y-101483288D01*
X115439461Y-101254348D01*
X115350134Y-101038692D01*
X115220450Y-100844606D01*
X115055394Y-100679550D01*
X114861308Y-100549866D01*
X114645652Y-100460539D01*
X114618935Y-100455225D01*
X114552071Y-100388361D01*
X114585185Y-100361185D01*
X114664537Y-100264494D01*
X114723502Y-100154180D01*
X114759812Y-100034482D01*
X114772072Y-99910000D01*
X114772072Y-98210000D01*
X114759812Y-98085518D01*
X114723502Y-97965820D01*
X114664537Y-97855506D01*
X114585185Y-97758815D01*
X114488494Y-97679463D01*
X114378180Y-97620498D01*
X114297534Y-97596034D01*
X114381588Y-97520269D01*
X114555641Y-97286920D01*
X114680825Y-97024099D01*
X114725476Y-96876890D01*
X114604155Y-96647000D01*
X113411000Y-96647000D01*
X113411000Y-96667000D01*
X113157000Y-96667000D01*
X113157000Y-96647000D01*
X111963845Y-96647000D01*
X111842524Y-96876890D01*
X111887175Y-97024099D01*
X112012359Y-97286920D01*
X112186412Y-97520269D01*
X112270466Y-97596034D01*
X112189820Y-97620498D01*
X112079506Y-97679463D01*
X111982815Y-97758815D01*
X111903463Y-97855506D01*
X111844498Y-97965820D01*
X111808188Y-98085518D01*
X111795928Y-98210000D01*
X110921000Y-98210000D01*
X110921000Y-96163110D01*
X111842524Y-96163110D01*
X111963845Y-96393000D01*
X113157000Y-96393000D01*
X113157000Y-95199186D01*
X113411000Y-95199186D01*
X113411000Y-96393000D01*
X114604155Y-96393000D01*
X114725476Y-96163110D01*
X114680825Y-96015901D01*
X114555641Y-95753080D01*
X114381588Y-95519731D01*
X114165355Y-95324822D01*
X113915252Y-95175843D01*
X113640891Y-95078519D01*
X113411000Y-95199186D01*
X113157000Y-95199186D01*
X112927109Y-95078519D01*
X112652748Y-95175843D01*
X112402645Y-95324822D01*
X112186412Y-95519731D01*
X112012359Y-95753080D01*
X111887175Y-96015901D01*
X111842524Y-96163110D01*
X110921000Y-96163110D01*
X110921000Y-89077000D01*
X113548112Y-89077000D01*
X113366273Y-89152320D01*
%TA.AperFunction,Conductor*%
D20*
G36*
X113366273Y-89152320D02*
G01*
X113131241Y-89309363D01*
X112931363Y-89509241D01*
X112774320Y-89744273D01*
X112666147Y-90005426D01*
X112611000Y-90282665D01*
X112611000Y-90565335D01*
X112666147Y-90842574D01*
X112774320Y-91103727D01*
X112931363Y-91338759D01*
X113131241Y-91538637D01*
X113366273Y-91695680D01*
X113627426Y-91803853D01*
X113904665Y-91859000D01*
X114187335Y-91859000D01*
X114464574Y-91803853D01*
X114725727Y-91695680D01*
X114960759Y-91538637D01*
X115082694Y-91416702D01*
X115772903Y-91416702D01*
X115844486Y-91660671D01*
X116099996Y-91781571D01*
X116374184Y-91850300D01*
X116656512Y-91864217D01*
X116936130Y-91822787D01*
X117202292Y-91727603D01*
X117327514Y-91660671D01*
X117399097Y-91416702D01*
X116586000Y-90603605D01*
X115772903Y-91416702D01*
X115082694Y-91416702D01*
X115160637Y-91338759D01*
X115316915Y-91104872D01*
X115349329Y-91165514D01*
X115593298Y-91237097D01*
X116406395Y-90424000D01*
X115593298Y-89610903D01*
X115349329Y-89682486D01*
X115318806Y-89746992D01*
X115317680Y-89744273D01*
X115160637Y-89509241D01*
X114960759Y-89309363D01*
X114725727Y-89152320D01*
X114543888Y-89077000D01*
X116091059Y-89077000D01*
X115969708Y-89120397D01*
X115844486Y-89187329D01*
X115772903Y-89431298D01*
X116586000Y-90244395D01*
X117399097Y-89431298D01*
X117327514Y-89187329D01*
X117094345Y-89077000D01*
X118628112Y-89077000D01*
X118446273Y-89152320D01*
X118211241Y-89309363D01*
X118011363Y-89509241D01*
X117855085Y-89743128D01*
X117822671Y-89682486D01*
X117578702Y-89610903D01*
X116765605Y-90424000D01*
X117578702Y-91237097D01*
X117822671Y-91165514D01*
X117853194Y-91101008D01*
X117854320Y-91103727D01*
X118011363Y-91338759D01*
X118211241Y-91538637D01*
X118446273Y-91695680D01*
X118707426Y-91803853D01*
X118984665Y-91859000D01*
X119267335Y-91859000D01*
X119544574Y-91803853D01*
X119805727Y-91695680D01*
X120040759Y-91538637D01*
X120240637Y-91338759D01*
X120396000Y-91106241D01*
X120551363Y-91338759D01*
X120631001Y-91418397D01*
X120631000Y-92380042D01*
X120615866Y-92402692D01*
X120526539Y-92618348D01*
X120481000Y-92847288D01*
X120481000Y-93080712D01*
X120526539Y-93309652D01*
X120615866Y-93525308D01*
X120745550Y-93719394D01*
X120910606Y-93884450D01*
X121104692Y-94014134D01*
X121320348Y-94103461D01*
X121549288Y-94149000D01*
X121782712Y-94149000D01*
X122011652Y-94103461D01*
X122227308Y-94014134D01*
X122421394Y-93884450D01*
X122586450Y-93719394D01*
X122716134Y-93525308D01*
X122805461Y-93309652D01*
X122851000Y-93080712D01*
X122851000Y-92847288D01*
X122805461Y-92618348D01*
X122716134Y-92402692D01*
X122701000Y-92380042D01*
X122701000Y-91418396D01*
X122780637Y-91338759D01*
X122936000Y-91106241D01*
X123091363Y-91338759D01*
X123171001Y-91418397D01*
X123171001Y-92151153D01*
X123171000Y-92151163D01*
X123171001Y-93929163D01*
X123165994Y-93980000D01*
X123185977Y-94182895D01*
X123245160Y-94377993D01*
X123341266Y-94557797D01*
X123438197Y-94675907D01*
X123470605Y-94715396D01*
X123510092Y-94747803D01*
X127633225Y-98870936D01*
X127638539Y-98897652D01*
X127727866Y-99113308D01*
X127857550Y-99307394D01*
X128022606Y-99472450D01*
X128216692Y-99602134D01*
X128432348Y-99691461D01*
X128661288Y-99737000D01*
X128669289Y-99737000D01*
X124177290Y-104229000D01*
X124064665Y-104229000D01*
X123787426Y-104284147D01*
X123526273Y-104392320D01*
X123291241Y-104549363D01*
X123091363Y-104749241D01*
X122935085Y-104983128D01*
X122902671Y-104922486D01*
X122658702Y-104850903D01*
X121845605Y-105664000D01*
X122658702Y-106477097D01*
X122902671Y-106405514D01*
X122933194Y-106341008D01*
X122934320Y-106343727D01*
X123091363Y-106578759D01*
X123291241Y-106778637D01*
X123526273Y-106935680D01*
X123708112Y-107011000D01*
X122160941Y-107011000D01*
X122282292Y-106967603D01*
X122407514Y-106900671D01*
X122479097Y-106656702D01*
X121666000Y-105843605D01*
X120852903Y-106656702D01*
X120924486Y-106900671D01*
X121157655Y-107011000D01*
X119620941Y-107011000D01*
X119742292Y-106967603D01*
X119867514Y-106900671D01*
X119939097Y-106656702D01*
X119126000Y-105843605D01*
X118312903Y-106656702D01*
X118384486Y-106900671D01*
X118617655Y-107011000D01*
X117083888Y-107011000D01*
X117265727Y-106935680D01*
X117500759Y-106778637D01*
X117700637Y-106578759D01*
X117856915Y-106344872D01*
X117889329Y-106405514D01*
X118133298Y-106477097D01*
X118946395Y-105664000D01*
X119305605Y-105664000D01*
X120118702Y-106477097D01*
X120362671Y-106405514D01*
X120393971Y-106339364D01*
X120429329Y-106405514D01*
X120673298Y-106477097D01*
X121486395Y-105664000D01*
X120673298Y-104850903D01*
X120429329Y-104922486D01*
X120398029Y-104988636D01*
X120362671Y-104922486D01*
X120118702Y-104850903D01*
X119305605Y-105664000D01*
X118946395Y-105664000D01*
X118133298Y-104850903D01*
X117889329Y-104922486D01*
X117858806Y-104986992D01*
X117857680Y-104984273D01*
X117700637Y-104749241D01*
X117622694Y-104671298D01*
X118312903Y-104671298D01*
X119126000Y-105484395D01*
X119939097Y-104671298D01*
X120852903Y-104671298D01*
X121666000Y-105484395D01*
X122479097Y-104671298D01*
X122407514Y-104427329D01*
X122152004Y-104306429D01*
X121877816Y-104237700D01*
X121595488Y-104223783D01*
X121315870Y-104265213D01*
X121049708Y-104360397D01*
X120924486Y-104427329D01*
X120852903Y-104671298D01*
X119939097Y-104671298D01*
X119867514Y-104427329D01*
X119612004Y-104306429D01*
X119337816Y-104237700D01*
X119055488Y-104223783D01*
X118775870Y-104265213D01*
X118509708Y-104360397D01*
X118384486Y-104427329D01*
X118312903Y-104671298D01*
X117622694Y-104671298D01*
X117500759Y-104549363D01*
X117265727Y-104392320D01*
X117004574Y-104284147D01*
X116727335Y-104229000D01*
X116444665Y-104229000D01*
X116167426Y-104284147D01*
X115906273Y-104392320D01*
X115671241Y-104549363D01*
X115472643Y-104747961D01*
X115471812Y-104739518D01*
X115435502Y-104619820D01*
X115376537Y-104509506D01*
X115297185Y-104412815D01*
X115200494Y-104333463D01*
X115090180Y-104274498D01*
X114970482Y-104238188D01*
X114846000Y-104225928D01*
X113246000Y-104225928D01*
X113121518Y-104238188D01*
X113001820Y-104274498D01*
X112891506Y-104333463D01*
X112794815Y-104412815D01*
X112715463Y-104509506D01*
X112656498Y-104619820D01*
X112620188Y-104739518D01*
X112607928Y-104864000D01*
X112607928Y-106464000D01*
X112620188Y-106588482D01*
X112656498Y-106708180D01*
X112715463Y-106818494D01*
X112794815Y-106915185D01*
X112891506Y-106994537D01*
X112922306Y-107011000D01*
X110921000Y-107011000D01*
X110921000Y-98210000D01*
X111795928Y-98210000D01*
X111795928Y-99910000D01*
X111808188Y-100034482D01*
X111844498Y-100154180D01*
X111903463Y-100264494D01*
X111982815Y-100361185D01*
X112079506Y-100440537D01*
X112189820Y-100499502D01*
X112249001Y-100517454D01*
X112249001Y-100533163D01*
X112243994Y-100584000D01*
X112263977Y-100786895D01*
X112323160Y-100981993D01*
X112419266Y-101161797D01*
X112516197Y-101279907D01*
X112548605Y-101319396D01*
X112588092Y-101351802D01*
X113155225Y-101918935D01*
X113160539Y-101945652D01*
X113249866Y-102161308D01*
X113379550Y-102355394D01*
X113544606Y-102520450D01*
X113738692Y-102650134D01*
X113954348Y-102739461D01*
X114183288Y-102785000D01*
X114416712Y-102785000D01*
X114645652Y-102739461D01*
X114861308Y-102650134D01*
X115055394Y-102520450D01*
X115220450Y-102355394D01*
X115350134Y-102161308D01*
X115439461Y-101945652D01*
X115485000Y-101716712D01*
X115485000Y-101483288D01*
X115439461Y-101254348D01*
X115350134Y-101038692D01*
X115220450Y-100844606D01*
X115055394Y-100679550D01*
X114861308Y-100549866D01*
X114645652Y-100460539D01*
X114618935Y-100455225D01*
X114552071Y-100388361D01*
X114585185Y-100361185D01*
X114664537Y-100264494D01*
X114723502Y-100154180D01*
X114759812Y-100034482D01*
X114772072Y-99910000D01*
X114772072Y-98210000D01*
X114759812Y-98085518D01*
X114723502Y-97965820D01*
X114664537Y-97855506D01*
X114585185Y-97758815D01*
X114488494Y-97679463D01*
X114378180Y-97620498D01*
X114297534Y-97596034D01*
X114381588Y-97520269D01*
X114555641Y-97286920D01*
X114680825Y-97024099D01*
X114725476Y-96876890D01*
X114604155Y-96647000D01*
X113411000Y-96647000D01*
X113411000Y-96667000D01*
X113157000Y-96667000D01*
X113157000Y-96647000D01*
X111963845Y-96647000D01*
X111842524Y-96876890D01*
X111887175Y-97024099D01*
X112012359Y-97286920D01*
X112186412Y-97520269D01*
X112270466Y-97596034D01*
X112189820Y-97620498D01*
X112079506Y-97679463D01*
X111982815Y-97758815D01*
X111903463Y-97855506D01*
X111844498Y-97965820D01*
X111808188Y-98085518D01*
X111795928Y-98210000D01*
X110921000Y-98210000D01*
X110921000Y-96163110D01*
X111842524Y-96163110D01*
X111963845Y-96393000D01*
X113157000Y-96393000D01*
X113157000Y-95199186D01*
X113411000Y-95199186D01*
X113411000Y-96393000D01*
X114604155Y-96393000D01*
X114725476Y-96163110D01*
X114680825Y-96015901D01*
X114555641Y-95753080D01*
X114381588Y-95519731D01*
X114165355Y-95324822D01*
X113915252Y-95175843D01*
X113640891Y-95078519D01*
X113411000Y-95199186D01*
X113157000Y-95199186D01*
X112927109Y-95078519D01*
X112652748Y-95175843D01*
X112402645Y-95324822D01*
X112186412Y-95519731D01*
X112012359Y-95753080D01*
X111887175Y-96015901D01*
X111842524Y-96163110D01*
X110921000Y-96163110D01*
X110921000Y-89077000D01*
X113548112Y-89077000D01*
X113366273Y-89152320D01*
G37*
%TD.AperFunction*%
D19*
X168479000Y-93906773D02*
X167163750Y-93909000D01*
X167005000Y-94067750D01*
X167005000Y-95092000D01*
X167025000Y-95092000D01*
X167025000Y-95346000D01*
X167005000Y-95346000D01*
X167005000Y-96370250D01*
X167163750Y-96529000D01*
X168479000Y-96531227D01*
X168479001Y-99556773D01*
X167163750Y-99559000D01*
X167005000Y-99717750D01*
X167005000Y-100742000D01*
X167025000Y-100742000D01*
X167025000Y-100996000D01*
X167005000Y-100996000D01*
X167005000Y-102020250D01*
X167163750Y-102179000D01*
X168479001Y-102181227D01*
X168479001Y-107011000D01*
X142483888Y-107011000D01*
X142665727Y-106935680D01*
X142900759Y-106778637D01*
X143100637Y-106578759D01*
X143257680Y-106343727D01*
X143365853Y-106082574D01*
X143421000Y-105805335D01*
X143421000Y-105522665D01*
X143365853Y-105245426D01*
X143257680Y-104984273D01*
X143100637Y-104749241D01*
X143018396Y-104667000D01*
X158928042Y-104667000D01*
X158950692Y-104682134D01*
X159166348Y-104771461D01*
X159395288Y-104817000D01*
X159628712Y-104817000D01*
X159857652Y-104771461D01*
X160073308Y-104682134D01*
X160267394Y-104552450D01*
X160432450Y-104387394D01*
X160562134Y-104193308D01*
X160651461Y-103977652D01*
X160697000Y-103748712D01*
X160697000Y-103515288D01*
X160651461Y-103286348D01*
X160562134Y-103070692D01*
X160432450Y-102876606D01*
X160267394Y-102711550D01*
X160073308Y-102581866D01*
X159857652Y-102492539D01*
X159628712Y-102447000D01*
X159395288Y-102447000D01*
X159166348Y-102492539D01*
X158950692Y-102581866D01*
X158928042Y-102597000D01*
X148548710Y-102597000D01*
X149601710Y-101544000D01*
X164139928Y-101544000D01*
X164152188Y-101668482D01*
X164188498Y-101788180D01*
X164247463Y-101898494D01*
X164326815Y-101995185D01*
X164423506Y-102074537D01*
X164533820Y-102133502D01*
X164653518Y-102169812D01*
X164778000Y-102182072D01*
X166592250Y-102179000D01*
X166751000Y-102020250D01*
X166751000Y-100996000D01*
X164301750Y-100996000D01*
X164143000Y-101154750D01*
X164139928Y-101544000D01*
X149601710Y-101544000D01*
X150951710Y-100194000D01*
X164139928Y-100194000D01*
X164143000Y-100583250D01*
X164301750Y-100742000D01*
X166751000Y-100742000D01*
X166751000Y-99717750D01*
X166592250Y-99559000D01*
X164778000Y-99555928D01*
X164653518Y-99568188D01*
X164533820Y-99604498D01*
X164423506Y-99663463D01*
X164326815Y-99742815D01*
X164247463Y-99839506D01*
X164188498Y-99949820D01*
X164152188Y-100069518D01*
X164139928Y-100194000D01*
X150951710Y-100194000D01*
X155251710Y-95894000D01*
X164139928Y-95894000D01*
X164152188Y-96018482D01*
X164188498Y-96138180D01*
X164247463Y-96248494D01*
X164326815Y-96345185D01*
X164423506Y-96424537D01*
X164533820Y-96483502D01*
X164653518Y-96519812D01*
X164778000Y-96532072D01*
X166592250Y-96529000D01*
X166751000Y-96370250D01*
X166751000Y-95346000D01*
X164301750Y-95346000D01*
X164143000Y-95504750D01*
X164139928Y-95894000D01*
X155251710Y-95894000D01*
X156143908Y-95001803D01*
X156183396Y-94969396D01*
X156215803Y-94929908D01*
X156312734Y-94811798D01*
X156408841Y-94631994D01*
X156431348Y-94557797D01*
X156435533Y-94544000D01*
X164139928Y-94544000D01*
X164143000Y-94933250D01*
X164301750Y-95092000D01*
X166751000Y-95092000D01*
X166751000Y-94067750D01*
X166592250Y-93909000D01*
X164778000Y-93905928D01*
X164653518Y-93918188D01*
X164533820Y-93954498D01*
X164423506Y-94013463D01*
X164326815Y-94092815D01*
X164247463Y-94189506D01*
X164188498Y-94299820D01*
X164152188Y-94419518D01*
X164139928Y-94544000D01*
X156435533Y-94544000D01*
X156468024Y-94436895D01*
X156483000Y-94284838D01*
X156483000Y-94284835D01*
X156488007Y-94234000D01*
X156483000Y-94183165D01*
X156483000Y-93293958D01*
X156498134Y-93271308D01*
X156587461Y-93055652D01*
X156633000Y-92826712D01*
X156633000Y-92593288D01*
X156587461Y-92364348D01*
X156498134Y-92148692D01*
X156368450Y-91954606D01*
X156203394Y-91789550D01*
X156009308Y-91659866D01*
X155793652Y-91570539D01*
X155564712Y-91525000D01*
X155331288Y-91525000D01*
X155102348Y-91570539D01*
X154886692Y-91659866D01*
X154692606Y-91789550D01*
X154527550Y-91954606D01*
X154432000Y-92097607D01*
X154336450Y-91954606D01*
X154171394Y-91789550D01*
X153977308Y-91659866D01*
X153761652Y-91570539D01*
X153532712Y-91525000D01*
X153299288Y-91525000D01*
X153070348Y-91570539D01*
X152854692Y-91659866D01*
X152660606Y-91789550D01*
X152495550Y-91954606D01*
X152400000Y-92097607D01*
X152304450Y-91954606D01*
X152139394Y-91789550D01*
X151945308Y-91659866D01*
X151729652Y-91570539D01*
X151500712Y-91525000D01*
X151267288Y-91525000D01*
X151038348Y-91570539D01*
X150822692Y-91659866D01*
X150628606Y-91789550D01*
X150463550Y-91954606D01*
X150333866Y-92148692D01*
X150244539Y-92364348D01*
X150199000Y-92593288D01*
X150199000Y-92826712D01*
X150244539Y-93055652D01*
X150333866Y-93271308D01*
X150349000Y-93293958D01*
X150349000Y-93297289D01*
X146129290Y-97517000D01*
X140526085Y-97517000D01*
X140585461Y-97373652D01*
X140631000Y-97144712D01*
X140631000Y-96911288D01*
X140585461Y-96682348D01*
X140496134Y-96466692D01*
X140481000Y-96444042D01*
X140481000Y-91418396D01*
X140560637Y-91338759D01*
X140716000Y-91106241D01*
X140871363Y-91338759D01*
X141071241Y-91538637D01*
X141306273Y-91695680D01*
X141567426Y-91803853D01*
X141844665Y-91859000D01*
X142127335Y-91859000D01*
X142404574Y-91803853D01*
X142665727Y-91695680D01*
X142900759Y-91538637D01*
X143100637Y-91338759D01*
X143257680Y-91103727D01*
X143365853Y-90842574D01*
X143421000Y-90565335D01*
X143421000Y-90282665D01*
X143365853Y-90005426D01*
X143257680Y-89744273D01*
X143100637Y-89509241D01*
X142900759Y-89309363D01*
X142665727Y-89152320D01*
X142483888Y-89077000D01*
X168479000Y-89077000D01*
X168479000Y-93906773D01*
%TA.AperFunction,Conductor*%
D20*
G36*
X168479000Y-93906773D02*
G01*
X167163750Y-93909000D01*
X167005000Y-94067750D01*
X167005000Y-95092000D01*
X167025000Y-95092000D01*
X167025000Y-95346000D01*
X167005000Y-95346000D01*
X167005000Y-96370250D01*
X167163750Y-96529000D01*
X168479000Y-96531227D01*
X168479001Y-99556773D01*
X167163750Y-99559000D01*
X167005000Y-99717750D01*
X167005000Y-100742000D01*
X167025000Y-100742000D01*
X167025000Y-100996000D01*
X167005000Y-100996000D01*
X167005000Y-102020250D01*
X167163750Y-102179000D01*
X168479001Y-102181227D01*
X168479001Y-107011000D01*
X142483888Y-107011000D01*
X142665727Y-106935680D01*
X142900759Y-106778637D01*
X143100637Y-106578759D01*
X143257680Y-106343727D01*
X143365853Y-106082574D01*
X143421000Y-105805335D01*
X143421000Y-105522665D01*
X143365853Y-105245426D01*
X143257680Y-104984273D01*
X143100637Y-104749241D01*
X143018396Y-104667000D01*
X158928042Y-104667000D01*
X158950692Y-104682134D01*
X159166348Y-104771461D01*
X159395288Y-104817000D01*
X159628712Y-104817000D01*
X159857652Y-104771461D01*
X160073308Y-104682134D01*
X160267394Y-104552450D01*
X160432450Y-104387394D01*
X160562134Y-104193308D01*
X160651461Y-103977652D01*
X160697000Y-103748712D01*
X160697000Y-103515288D01*
X160651461Y-103286348D01*
X160562134Y-103070692D01*
X160432450Y-102876606D01*
X160267394Y-102711550D01*
X160073308Y-102581866D01*
X159857652Y-102492539D01*
X159628712Y-102447000D01*
X159395288Y-102447000D01*
X159166348Y-102492539D01*
X158950692Y-102581866D01*
X158928042Y-102597000D01*
X148548710Y-102597000D01*
X149601710Y-101544000D01*
X164139928Y-101544000D01*
X164152188Y-101668482D01*
X164188498Y-101788180D01*
X164247463Y-101898494D01*
X164326815Y-101995185D01*
X164423506Y-102074537D01*
X164533820Y-102133502D01*
X164653518Y-102169812D01*
X164778000Y-102182072D01*
X166592250Y-102179000D01*
X166751000Y-102020250D01*
X166751000Y-100996000D01*
X164301750Y-100996000D01*
X164143000Y-101154750D01*
X164139928Y-101544000D01*
X149601710Y-101544000D01*
X150951710Y-100194000D01*
X164139928Y-100194000D01*
X164143000Y-100583250D01*
X164301750Y-100742000D01*
X166751000Y-100742000D01*
X166751000Y-99717750D01*
X166592250Y-99559000D01*
X164778000Y-99555928D01*
X164653518Y-99568188D01*
X164533820Y-99604498D01*
X164423506Y-99663463D01*
X164326815Y-99742815D01*
X164247463Y-99839506D01*
X164188498Y-99949820D01*
X164152188Y-100069518D01*
X164139928Y-100194000D01*
X150951710Y-100194000D01*
X155251710Y-95894000D01*
X164139928Y-95894000D01*
X164152188Y-96018482D01*
X164188498Y-96138180D01*
X164247463Y-96248494D01*
X164326815Y-96345185D01*
X164423506Y-96424537D01*
X164533820Y-96483502D01*
X164653518Y-96519812D01*
X164778000Y-96532072D01*
X166592250Y-96529000D01*
X166751000Y-96370250D01*
X166751000Y-95346000D01*
X164301750Y-95346000D01*
X164143000Y-95504750D01*
X164139928Y-95894000D01*
X155251710Y-95894000D01*
X156143908Y-95001803D01*
X156183396Y-94969396D01*
X156215803Y-94929908D01*
X156312734Y-94811798D01*
X156408841Y-94631994D01*
X156431348Y-94557797D01*
X156435533Y-94544000D01*
X164139928Y-94544000D01*
X164143000Y-94933250D01*
X164301750Y-95092000D01*
X166751000Y-95092000D01*
X166751000Y-94067750D01*
X166592250Y-93909000D01*
X164778000Y-93905928D01*
X164653518Y-93918188D01*
X164533820Y-93954498D01*
X164423506Y-94013463D01*
X164326815Y-94092815D01*
X164247463Y-94189506D01*
X164188498Y-94299820D01*
X164152188Y-94419518D01*
X164139928Y-94544000D01*
X156435533Y-94544000D01*
X156468024Y-94436895D01*
X156483000Y-94284838D01*
X156483000Y-94284835D01*
X156488007Y-94234000D01*
X156483000Y-94183165D01*
X156483000Y-93293958D01*
X156498134Y-93271308D01*
X156587461Y-93055652D01*
X156633000Y-92826712D01*
X156633000Y-92593288D01*
X156587461Y-92364348D01*
X156498134Y-92148692D01*
X156368450Y-91954606D01*
X156203394Y-91789550D01*
X156009308Y-91659866D01*
X155793652Y-91570539D01*
X155564712Y-91525000D01*
X155331288Y-91525000D01*
X155102348Y-91570539D01*
X154886692Y-91659866D01*
X154692606Y-91789550D01*
X154527550Y-91954606D01*
X154432000Y-92097607D01*
X154336450Y-91954606D01*
X154171394Y-91789550D01*
X153977308Y-91659866D01*
X153761652Y-91570539D01*
X153532712Y-91525000D01*
X153299288Y-91525000D01*
X153070348Y-91570539D01*
X152854692Y-91659866D01*
X152660606Y-91789550D01*
X152495550Y-91954606D01*
X152400000Y-92097607D01*
X152304450Y-91954606D01*
X152139394Y-91789550D01*
X151945308Y-91659866D01*
X151729652Y-91570539D01*
X151500712Y-91525000D01*
X151267288Y-91525000D01*
X151038348Y-91570539D01*
X150822692Y-91659866D01*
X150628606Y-91789550D01*
X150463550Y-91954606D01*
X150333866Y-92148692D01*
X150244539Y-92364348D01*
X150199000Y-92593288D01*
X150199000Y-92826712D01*
X150244539Y-93055652D01*
X150333866Y-93271308D01*
X150349000Y-93293958D01*
X150349000Y-93297289D01*
X146129290Y-97517000D01*
X140526085Y-97517000D01*
X140585461Y-97373652D01*
X140631000Y-97144712D01*
X140631000Y-96911288D01*
X140585461Y-96682348D01*
X140496134Y-96466692D01*
X140481000Y-96444042D01*
X140481000Y-91418396D01*
X140560637Y-91338759D01*
X140716000Y-91106241D01*
X140871363Y-91338759D01*
X141071241Y-91538637D01*
X141306273Y-91695680D01*
X141567426Y-91803853D01*
X141844665Y-91859000D01*
X142127335Y-91859000D01*
X142404574Y-91803853D01*
X142665727Y-91695680D01*
X142900759Y-91538637D01*
X143100637Y-91338759D01*
X143257680Y-91103727D01*
X143365853Y-90842574D01*
X143421000Y-90565335D01*
X143421000Y-90282665D01*
X143365853Y-90005426D01*
X143257680Y-89744273D01*
X143100637Y-89509241D01*
X142900759Y-89309363D01*
X142665727Y-89152320D01*
X142483888Y-89077000D01*
X168479000Y-89077000D01*
X168479000Y-93906773D01*
G37*
%TD.AperFunction*%
D19*
X133251363Y-91338759D02*
X133331001Y-91418397D01*
X133331000Y-96444042D01*
X133315866Y-96466692D01*
X133226539Y-96682348D01*
X133181000Y-96911288D01*
X133181000Y-97144712D01*
X133226539Y-97373652D01*
X133285915Y-97517000D01*
X131368835Y-97517000D01*
X131318000Y-97511993D01*
X131267165Y-97517000D01*
X131267162Y-97517000D01*
X131115105Y-97531976D01*
X130920007Y-97591159D01*
X130844441Y-97631550D01*
X130740202Y-97687266D01*
X130622092Y-97784197D01*
X130582604Y-97816604D01*
X130550197Y-97856092D01*
X129963000Y-98443289D01*
X129963000Y-98435288D01*
X129917461Y-98206348D01*
X129828134Y-97990692D01*
X129698450Y-97796606D01*
X129533394Y-97631550D01*
X129339308Y-97501866D01*
X129123652Y-97412539D01*
X129096936Y-97407225D01*
X125241000Y-93551290D01*
X125241000Y-91418396D01*
X125320637Y-91338759D01*
X125476000Y-91106241D01*
X125631363Y-91338759D01*
X125831241Y-91538637D01*
X126066273Y-91695680D01*
X126327426Y-91803853D01*
X126604665Y-91859000D01*
X126887335Y-91859000D01*
X127164574Y-91803853D01*
X127425727Y-91695680D01*
X127660759Y-91538637D01*
X127860637Y-91338759D01*
X128016000Y-91106241D01*
X128171363Y-91338759D01*
X128371241Y-91538637D01*
X128606273Y-91695680D01*
X128867426Y-91803853D01*
X129144665Y-91859000D01*
X129427335Y-91859000D01*
X129704574Y-91803853D01*
X129965727Y-91695680D01*
X130200759Y-91538637D01*
X130400637Y-91338759D01*
X130556000Y-91106241D01*
X130711363Y-91338759D01*
X130911241Y-91538637D01*
X131146273Y-91695680D01*
X131407426Y-91803853D01*
X131684665Y-91859000D01*
X131967335Y-91859000D01*
X132244574Y-91803853D01*
X132505727Y-91695680D01*
X132740759Y-91538637D01*
X132940637Y-91338759D01*
X133096000Y-91106241D01*
X133251363Y-91338759D01*
%TA.AperFunction,Conductor*%
D20*
G36*
X133251363Y-91338759D02*
G01*
X133331001Y-91418397D01*
X133331000Y-96444042D01*
X133315866Y-96466692D01*
X133226539Y-96682348D01*
X133181000Y-96911288D01*
X133181000Y-97144712D01*
X133226539Y-97373652D01*
X133285915Y-97517000D01*
X131368835Y-97517000D01*
X131318000Y-97511993D01*
X131267165Y-97517000D01*
X131267162Y-97517000D01*
X131115105Y-97531976D01*
X130920007Y-97591159D01*
X130844441Y-97631550D01*
X130740202Y-97687266D01*
X130622092Y-97784197D01*
X130582604Y-97816604D01*
X130550197Y-97856092D01*
X129963000Y-98443289D01*
X129963000Y-98435288D01*
X129917461Y-98206348D01*
X129828134Y-97990692D01*
X129698450Y-97796606D01*
X129533394Y-97631550D01*
X129339308Y-97501866D01*
X129123652Y-97412539D01*
X129096936Y-97407225D01*
X125241000Y-93551290D01*
X125241000Y-91418396D01*
X125320637Y-91338759D01*
X125476000Y-91106241D01*
X125631363Y-91338759D01*
X125831241Y-91538637D01*
X126066273Y-91695680D01*
X126327426Y-91803853D01*
X126604665Y-91859000D01*
X126887335Y-91859000D01*
X127164574Y-91803853D01*
X127425727Y-91695680D01*
X127660759Y-91538637D01*
X127860637Y-91338759D01*
X128016000Y-91106241D01*
X128171363Y-91338759D01*
X128371241Y-91538637D01*
X128606273Y-91695680D01*
X128867426Y-91803853D01*
X129144665Y-91859000D01*
X129427335Y-91859000D01*
X129704574Y-91803853D01*
X129965727Y-91695680D01*
X130200759Y-91538637D01*
X130400637Y-91338759D01*
X130556000Y-91106241D01*
X130711363Y-91338759D01*
X130911241Y-91538637D01*
X131146273Y-91695680D01*
X131407426Y-91803853D01*
X131684665Y-91859000D01*
X131967335Y-91859000D01*
X132244574Y-91803853D01*
X132505727Y-91695680D01*
X132740759Y-91538637D01*
X132940637Y-91338759D01*
X133096000Y-91106241D01*
X133251363Y-91338759D01*
G37*
%TD.AperFunction*%
%TD*%
M02*
