%TF.GenerationSoftware,KiCad,Pcbnew,5.1.9+dfsg1-1+deb11u1*%
%TF.CreationDate,2023-03-09T17:46:08+02:00*%
%TF.ProjectId,lora_digirepeater_micro,6c6f7261-5f64-4696-9769-726570656174,rev?*%
%TF.SameCoordinates,Original*%
%TF.FileFunction,Copper,L1,Top*%
%TF.FilePolarity,Positive*%
%FSLAX46Y46*%
G04 Gerber Fmt 4.6, Leading zero omitted, Abs format (unit mm)*
G04 Created by KiCad (PCBNEW 5.1.9+dfsg1-1+deb11u1) date 2023-03-09 17:46:08*
%MOMM*%
%LPD*%
G01*
G04 APERTURE LIST*
%TA.AperFunction,ComponentPad*%
%ADD10R,1.600000X1.600000*%
%TD*%
%TA.AperFunction,ComponentPad*%
%ADD11C,1.600000*%
%TD*%
%TA.AperFunction,SMDPad,CuDef*%
%ADD12R,1.500000X2.000000*%
%TD*%
%TA.AperFunction,ComponentPad*%
%ADD13R,1.700000X1.700000*%
%TD*%
%TA.AperFunction,ComponentPad*%
%ADD14O,1.700000X1.700000*%
%TD*%
%TA.AperFunction,SMDPad,CuDef*%
%ADD15R,4.200000X1.350000*%
%TD*%
%TA.AperFunction,SMDPad,CuDef*%
%ADD16R,3.600000X1.270000*%
%TD*%
%TA.AperFunction,ViaPad*%
%ADD17C,1.100000*%
%TD*%
%TA.AperFunction,Conductor*%
%ADD18C,0.250000*%
%TD*%
%TA.AperFunction,Conductor*%
%ADD19C,0.500000*%
%TD*%
%TA.AperFunction,Conductor*%
%ADD20C,0.800000*%
%TD*%
%TA.AperFunction,Conductor*%
%ADD21C,0.254000*%
%TD*%
%TA.AperFunction,Conductor*%
%ADD22C,0.100000*%
%TD*%
G04 APERTURE END LIST*
D10*
%TO.P,U1,1*%
%TO.N,N/C*%
X114046000Y-105664000D03*
D11*
%TO.P,U1,2*%
X116586000Y-105664000D03*
%TO.P,U1,3*%
%TO.N,GND*%
X119126000Y-105664000D03*
%TO.P,U1,4*%
X121666000Y-105664000D03*
%TO.P,U1,5*%
%TO.N,DIO1*%
X124206000Y-105664000D03*
%TO.P,U1,6*%
%TO.N,DIO0*%
X126746000Y-105664000D03*
%TO.P,U1,7*%
%TO.N,NRST*%
X129286000Y-105664000D03*
%TO.P,U1,8*%
%TO.N,NSS*%
X131826000Y-105664000D03*
%TO.P,U1,9*%
%TO.N,N/C*%
X134366000Y-105664000D03*
%TO.P,U1,10*%
X136906000Y-105664000D03*
%TO.P,U1,11*%
X139446000Y-105664000D03*
%TO.P,U1,12*%
X141986000Y-105664000D03*
%TO.P,U1,13*%
X141986000Y-90424000D03*
%TO.P,U1,14*%
%TO.N,MOSI*%
X139446000Y-90424000D03*
%TO.P,U1,15*%
%TO.N,MISO*%
X136906000Y-90424000D03*
%TO.P,U1,16*%
%TO.N,SCK*%
X134366000Y-90424000D03*
%TO.P,U1,17*%
%TO.N,N/C*%
X131826000Y-90424000D03*
%TO.P,U1,18*%
X129286000Y-90424000D03*
%TO.P,U1,19*%
X126746000Y-90424000D03*
%TO.P,U1,20*%
%TO.N,VBAT*%
X124206000Y-90424000D03*
%TO.P,U1,21*%
%TO.N,+3V3*%
X121666000Y-90424000D03*
%TO.P,U1,22*%
%TO.N,N/C*%
X119126000Y-90424000D03*
%TO.P,U1,23*%
%TO.N,GND*%
X116586000Y-90424000D03*
%TO.P,U1,24*%
%TO.N,N/C*%
X114046000Y-90424000D03*
%TD*%
D12*
%TO.P,U2,16*%
%TO.N,GND*%
X161432000Y-106044000D03*
%TO.P,U2,15*%
%TO.N,NSS*%
X159432000Y-106044000D03*
%TO.P,U2,14*%
%TO.N,MOSI*%
X157432000Y-106044000D03*
%TO.P,U2,13*%
%TO.N,MISO*%
X155432000Y-106044000D03*
%TO.P,U2,12*%
%TO.N,SCK*%
X153432000Y-106044000D03*
%TO.P,U2,11*%
%TO.N,N/C*%
X151432000Y-106044000D03*
%TO.P,U2,10*%
X149432000Y-106044000D03*
%TO.P,U2,9*%
%TO.N,GND*%
X147432000Y-106044000D03*
%TO.P,U2,8*%
%TO.N,N/C*%
X147432000Y-90044000D03*
%TO.P,U2,7*%
X149432000Y-90044000D03*
%TO.P,U2,6*%
%TO.N,DIO1*%
X151432000Y-90044000D03*
%TO.P,U2,5*%
%TO.N,DIO0*%
X153432000Y-90044000D03*
%TO.P,U2,4*%
%TO.N,NRST*%
X155432000Y-90044000D03*
%TO.P,U2,3*%
%TO.N,+3V3*%
X157432000Y-90044000D03*
%TO.P,U2,2*%
%TO.N,GND*%
X159432000Y-90044000D03*
%TO.P,U2,1*%
%TO.N,ANT*%
X161432000Y-90044000D03*
%TD*%
D13*
%TO.P,J1,1*%
%TO.N,+3V3*%
X113284000Y-99060000D03*
D14*
%TO.P,J1,2*%
%TO.N,GND*%
X113284000Y-96520000D03*
%TD*%
%TO.P,C1,2*%
%TO.N,GND*%
%TA.AperFunction,SMDPad,CuDef*%
G36*
G01*
X123477000Y-95170500D02*
X124427000Y-95170500D01*
G75*
G02*
X124677000Y-95420500I0J-250000D01*
G01*
X124677000Y-96095500D01*
G75*
G02*
X124427000Y-96345500I-250000J0D01*
G01*
X123477000Y-96345500D01*
G75*
G02*
X123227000Y-96095500I0J250000D01*
G01*
X123227000Y-95420500D01*
G75*
G02*
X123477000Y-95170500I250000J0D01*
G01*
G37*
%TD.AperFunction*%
%TO.P,C1,1*%
%TO.N,+3V3*%
%TA.AperFunction,SMDPad,CuDef*%
G36*
G01*
X123477000Y-93095500D02*
X124427000Y-93095500D01*
G75*
G02*
X124677000Y-93345500I0J-250000D01*
G01*
X124677000Y-94020500D01*
G75*
G02*
X124427000Y-94270500I-250000J0D01*
G01*
X123477000Y-94270500D01*
G75*
G02*
X123227000Y-94020500I0J250000D01*
G01*
X123227000Y-93345500D01*
G75*
G02*
X123477000Y-93095500I250000J0D01*
G01*
G37*
%TD.AperFunction*%
%TD*%
%TO.P,C2,1*%
%TO.N,+3V3*%
%TA.AperFunction,SMDPad,CuDef*%
G36*
G01*
X119864001Y-102454500D02*
X116863999Y-102454500D01*
G75*
G02*
X116614000Y-102204501I0J249999D01*
G01*
X116614000Y-99979499D01*
G75*
G02*
X116863999Y-99729500I249999J0D01*
G01*
X119864001Y-99729500D01*
G75*
G02*
X120114000Y-99979499I0J-249999D01*
G01*
X120114000Y-102204501D01*
G75*
G02*
X119864001Y-102454500I-249999J0D01*
G01*
G37*
%TD.AperFunction*%
%TO.P,C2,2*%
%TO.N,GND*%
%TA.AperFunction,SMDPad,CuDef*%
G36*
G01*
X119864001Y-96729500D02*
X116863999Y-96729500D01*
G75*
G02*
X116614000Y-96479501I0J249999D01*
G01*
X116614000Y-94254499D01*
G75*
G02*
X116863999Y-94004500I249999J0D01*
G01*
X119864001Y-94004500D01*
G75*
G02*
X120114000Y-94254499I0J-249999D01*
G01*
X120114000Y-96479501D01*
G75*
G02*
X119864001Y-96729500I-249999J0D01*
G01*
G37*
%TD.AperFunction*%
%TD*%
%TO.P,C3,1*%
%TO.N,+3V3*%
%TA.AperFunction,SMDPad,CuDef*%
G36*
G01*
X142019000Y-93095500D02*
X142969000Y-93095500D01*
G75*
G02*
X143219000Y-93345500I0J-250000D01*
G01*
X143219000Y-94020500D01*
G75*
G02*
X142969000Y-94270500I-250000J0D01*
G01*
X142019000Y-94270500D01*
G75*
G02*
X141769000Y-94020500I0J250000D01*
G01*
X141769000Y-93345500D01*
G75*
G02*
X142019000Y-93095500I250000J0D01*
G01*
G37*
%TD.AperFunction*%
%TO.P,C3,2*%
%TO.N,GND*%
%TA.AperFunction,SMDPad,CuDef*%
G36*
G01*
X142019000Y-95170500D02*
X142969000Y-95170500D01*
G75*
G02*
X143219000Y-95420500I0J-250000D01*
G01*
X143219000Y-96095500D01*
G75*
G02*
X142969000Y-96345500I-250000J0D01*
G01*
X142019000Y-96345500D01*
G75*
G02*
X141769000Y-96095500I0J250000D01*
G01*
X141769000Y-95420500D01*
G75*
G02*
X142019000Y-95170500I250000J0D01*
G01*
G37*
%TD.AperFunction*%
%TD*%
D15*
%TO.P,J2,2*%
%TO.N,GND*%
X166878000Y-100869000D03*
X166878000Y-95219000D03*
D16*
%TO.P,J2,1*%
%TO.N,ANT*%
X167078000Y-98044000D03*
%TD*%
%TO.P,R1,1*%
%TO.N,+3V3*%
%TA.AperFunction,SMDPad,CuDef*%
G36*
G01*
X127275001Y-102517002D02*
X127275001Y-101617000D01*
G75*
G02*
X127525000Y-101367001I249999J0D01*
G01*
X128225002Y-101367001D01*
G75*
G02*
X128475001Y-101617000I0J-249999D01*
G01*
X128475001Y-102517002D01*
G75*
G02*
X128225002Y-102767001I-249999J0D01*
G01*
X127525000Y-102767001D01*
G75*
G02*
X127275001Y-102517002I0J249999D01*
G01*
G37*
%TD.AperFunction*%
%TO.P,R1,2*%
%TO.N,VBAT*%
%TA.AperFunction,SMDPad,CuDef*%
G36*
G01*
X129275001Y-102517002D02*
X129275001Y-101617000D01*
G75*
G02*
X129525000Y-101367001I249999J0D01*
G01*
X130225002Y-101367001D01*
G75*
G02*
X130475001Y-101617000I0J-249999D01*
G01*
X130475001Y-102517002D01*
G75*
G02*
X130225002Y-102767001I-249999J0D01*
G01*
X129525000Y-102767001D01*
G75*
G02*
X129275001Y-102517002I0J249999D01*
G01*
G37*
%TD.AperFunction*%
%TD*%
%TO.P,R2,2*%
%TO.N,GND*%
%TA.AperFunction,SMDPad,CuDef*%
G36*
G01*
X134025001Y-102517002D02*
X134025001Y-101617000D01*
G75*
G02*
X134275000Y-101367001I249999J0D01*
G01*
X134975002Y-101367001D01*
G75*
G02*
X135225001Y-101617000I0J-249999D01*
G01*
X135225001Y-102517002D01*
G75*
G02*
X134975002Y-102767001I-249999J0D01*
G01*
X134275000Y-102767001D01*
G75*
G02*
X134025001Y-102517002I0J249999D01*
G01*
G37*
%TD.AperFunction*%
%TO.P,R2,1*%
%TO.N,VBAT*%
%TA.AperFunction,SMDPad,CuDef*%
G36*
G01*
X132025001Y-102517002D02*
X132025001Y-101617000D01*
G75*
G02*
X132275000Y-101367001I249999J0D01*
G01*
X132975002Y-101367001D01*
G75*
G02*
X133225001Y-101617000I0J-249999D01*
G01*
X133225001Y-102517002D01*
G75*
G02*
X132975002Y-102767001I-249999J0D01*
G01*
X132275000Y-102767001D01*
G75*
G02*
X132025001Y-102517002I0J249999D01*
G01*
G37*
%TD.AperFunction*%
%TD*%
D17*
%TO.N,GND*%
X164592000Y-90170000D03*
X164338000Y-105918000D03*
X159258000Y-92710000D03*
X161544000Y-103632000D03*
X131826000Y-97028000D03*
X121666000Y-103632000D03*
X159258000Y-98044000D03*
X116586000Y-92456000D03*
X119126000Y-103632000D03*
X113284000Y-93726000D03*
X144526000Y-95758000D03*
X154178000Y-98044000D03*
X167640000Y-90170000D03*
X167640000Y-92710000D03*
X167640000Y-105918000D03*
X167640000Y-103378000D03*
X122936000Y-98806000D03*
X144526000Y-105664000D03*
%TO.N,MOSI*%
X139446000Y-97028000D03*
%TO.N,MISO*%
X136906000Y-97028000D03*
%TO.N,SCK*%
X134366000Y-97028000D03*
%TO.N,NSS*%
X159512000Y-103632000D03*
%TO.N,NRST*%
X155448000Y-92710000D03*
%TO.N,DIO1*%
X151384000Y-92710000D03*
%TO.N,+3V3*%
X114300000Y-101600000D03*
X121666000Y-92964000D03*
%TO.N,VBAT*%
X128778000Y-98552000D03*
%TO.N,DIO0*%
X153416000Y-92710000D03*
%TD*%
D18*
%TO.N,MOSI*%
X139446000Y-90424000D02*
X140010058Y-90424000D01*
D19*
X157432000Y-106044000D02*
X157432000Y-105483998D01*
D18*
X139700000Y-97282000D02*
X139446000Y-97028000D01*
D20*
X141732000Y-99314000D02*
X139700000Y-97282000D01*
X152558000Y-99314000D02*
X141732000Y-99314000D01*
X157432000Y-104188000D02*
X152558000Y-99314000D01*
X157432000Y-106044000D02*
X157432000Y-104188000D01*
D19*
%TO.N,MISO*%
X155432000Y-106044000D02*
X155432000Y-105483998D01*
D18*
X137160000Y-97282000D02*
X136906000Y-97028000D01*
D20*
X140462000Y-100584000D02*
X137160000Y-97282000D01*
X151384000Y-100584000D02*
X140462000Y-100584000D01*
X155432000Y-104632000D02*
X151384000Y-100584000D01*
X155432000Y-106044000D02*
X155432000Y-104632000D01*
D19*
%TO.N,SCK*%
X153432000Y-106044000D02*
X153432000Y-105483998D01*
D18*
X134620000Y-97282000D02*
X134366000Y-97028000D01*
D20*
X139446000Y-102108000D02*
X134620000Y-97282000D01*
X150622000Y-102108000D02*
X139446000Y-102108000D01*
X153432000Y-104918000D02*
X150622000Y-102108000D01*
X153432000Y-106044000D02*
X153432000Y-104918000D01*
D19*
%TO.N,NSS*%
X159004000Y-105616000D02*
X159432000Y-106044000D01*
X159512000Y-105964000D02*
X159432000Y-106044000D01*
D20*
X159512000Y-103632000D02*
X159512000Y-105964000D01*
D19*
%TO.N,NRST*%
X155702000Y-90314000D02*
X155432000Y-90044000D01*
D20*
X155448000Y-90060000D02*
X155432000Y-90044000D01*
X155448000Y-92710000D02*
X155448000Y-90060000D01*
D18*
%TO.N,DIO1*%
X151432000Y-90884000D02*
X151432000Y-90044000D01*
D19*
X151384000Y-90092000D02*
X151432000Y-90044000D01*
D20*
X151384000Y-92710000D02*
X151384000Y-90092000D01*
D19*
%TO.N,+3V3*%
X156972000Y-90504000D02*
X157432000Y-90044000D01*
X117856000Y-101600000D02*
X118364000Y-101092000D01*
D20*
X114300000Y-101600000D02*
X117856000Y-101600000D01*
X118364000Y-101092000D02*
X124968000Y-101092000D01*
X132377000Y-93683000D02*
X142494000Y-93683000D01*
X142494000Y-93683000D02*
X147023000Y-93683000D01*
X147023000Y-93683000D02*
X149606000Y-96266000D01*
X149606000Y-96266000D02*
X155702000Y-96266000D01*
X157432000Y-94536000D02*
X157432000Y-90044000D01*
X155702000Y-96266000D02*
X157432000Y-94536000D01*
X124122000Y-93853000D02*
X123952000Y-93683000D01*
X122385000Y-93683000D02*
X121666000Y-92964000D01*
X123952000Y-93683000D02*
X122385000Y-93683000D01*
X125943001Y-102067001D02*
X124968000Y-101092000D01*
X127875001Y-102067001D02*
X125943001Y-102067001D01*
X124968000Y-101092000D02*
X124968000Y-99060000D01*
X124968000Y-99060000D02*
X126492000Y-97536000D01*
X126492000Y-93726000D02*
X123995000Y-93726000D01*
X132080000Y-93726000D02*
X126492000Y-93726000D01*
X126492000Y-97536000D02*
X126492000Y-93726000D01*
%TO.N,VBAT*%
X129742827Y-101934827D02*
X129875001Y-102067001D01*
X129875001Y-102067001D02*
X132625001Y-102067001D01*
X128778000Y-98552000D02*
X130048000Y-99822000D01*
X130048000Y-101894002D02*
X129875001Y-102067001D01*
X130048000Y-99822000D02*
X130048000Y-101894002D01*
D19*
%TO.N,ANT*%
X161544000Y-90156000D02*
X161432000Y-90044000D01*
D20*
X161544000Y-92710000D02*
X161544000Y-90156000D01*
X167078000Y-98044000D02*
X163322000Y-98044000D01*
X161544000Y-96266000D02*
X161544000Y-92710000D01*
X163322000Y-98044000D02*
X161544000Y-96266000D01*
D19*
%TO.N,DIO0*%
X153416000Y-90060000D02*
X153432000Y-90044000D01*
D20*
X153416000Y-92710000D02*
X153416000Y-90060000D01*
%TD*%
D21*
%TO.N,GND*%
X113366273Y-89152320D02*
X113131241Y-89309363D01*
X112931363Y-89509241D01*
X112774320Y-89744273D01*
X112666147Y-90005426D01*
X112611000Y-90282665D01*
X112611000Y-90565335D01*
X112666147Y-90842574D01*
X112774320Y-91103727D01*
X112931363Y-91338759D01*
X113131241Y-91538637D01*
X113366273Y-91695680D01*
X113627426Y-91803853D01*
X113904665Y-91859000D01*
X114187335Y-91859000D01*
X114464574Y-91803853D01*
X114725727Y-91695680D01*
X114960759Y-91538637D01*
X115082694Y-91416702D01*
X115772903Y-91416702D01*
X115844486Y-91660671D01*
X116099996Y-91781571D01*
X116374184Y-91850300D01*
X116656512Y-91864217D01*
X116936130Y-91822787D01*
X117202292Y-91727603D01*
X117327514Y-91660671D01*
X117399097Y-91416702D01*
X116586000Y-90603605D01*
X115772903Y-91416702D01*
X115082694Y-91416702D01*
X115160637Y-91338759D01*
X115316915Y-91104872D01*
X115349329Y-91165514D01*
X115593298Y-91237097D01*
X116406395Y-90424000D01*
X115593298Y-89610903D01*
X115349329Y-89682486D01*
X115318806Y-89746992D01*
X115317680Y-89744273D01*
X115160637Y-89509241D01*
X114960759Y-89309363D01*
X114725727Y-89152320D01*
X114543888Y-89077000D01*
X116091059Y-89077000D01*
X115969708Y-89120397D01*
X115844486Y-89187329D01*
X115772903Y-89431298D01*
X116586000Y-90244395D01*
X117399097Y-89431298D01*
X117327514Y-89187329D01*
X117094345Y-89077000D01*
X118628112Y-89077000D01*
X118446273Y-89152320D01*
X118211241Y-89309363D01*
X118011363Y-89509241D01*
X117855085Y-89743128D01*
X117822671Y-89682486D01*
X117578702Y-89610903D01*
X116765605Y-90424000D01*
X117578702Y-91237097D01*
X117822671Y-91165514D01*
X117853194Y-91101008D01*
X117854320Y-91103727D01*
X118011363Y-91338759D01*
X118211241Y-91538637D01*
X118446273Y-91695680D01*
X118707426Y-91803853D01*
X118984665Y-91859000D01*
X119267335Y-91859000D01*
X119544574Y-91803853D01*
X119805727Y-91695680D01*
X120040759Y-91538637D01*
X120240637Y-91338759D01*
X120396000Y-91106241D01*
X120551363Y-91338759D01*
X120751241Y-91538637D01*
X120986273Y-91695680D01*
X121247426Y-91803853D01*
X121335884Y-91821449D01*
X121320348Y-91824539D01*
X121104692Y-91913866D01*
X120910606Y-92043550D01*
X120745550Y-92208606D01*
X120615866Y-92402692D01*
X120526539Y-92618348D01*
X120481000Y-92847288D01*
X120481000Y-93080712D01*
X120526539Y-93309652D01*
X120615866Y-93525308D01*
X120745550Y-93719394D01*
X120910606Y-93884450D01*
X121104692Y-94014134D01*
X121320348Y-94103461D01*
X121347065Y-94108775D01*
X121617196Y-94378907D01*
X121649604Y-94418396D01*
X121689092Y-94450803D01*
X121807202Y-94547734D01*
X121987006Y-94643841D01*
X122002240Y-94648462D01*
X122182105Y-94703024D01*
X122334162Y-94718000D01*
X122334165Y-94718000D01*
X122385000Y-94723007D01*
X122435835Y-94718000D01*
X122777417Y-94718000D01*
X122775815Y-94719315D01*
X122696463Y-94816006D01*
X122637498Y-94926320D01*
X122601188Y-95046018D01*
X122588928Y-95170500D01*
X122592000Y-95472250D01*
X122750750Y-95631000D01*
X123825000Y-95631000D01*
X123825000Y-95611000D01*
X124079000Y-95611000D01*
X124079000Y-95631000D01*
X125153250Y-95631000D01*
X125312000Y-95472250D01*
X125315072Y-95170500D01*
X125302812Y-95046018D01*
X125266502Y-94926320D01*
X125207537Y-94816006D01*
X125162395Y-94761000D01*
X125457001Y-94761000D01*
X125457000Y-97107289D01*
X124272092Y-98292198D01*
X124232605Y-98324604D01*
X124200198Y-98364092D01*
X124200197Y-98364093D01*
X124103266Y-98482203D01*
X124007160Y-98662007D01*
X123947977Y-98857105D01*
X123927994Y-99060000D01*
X123933001Y-99110837D01*
X123933001Y-100057000D01*
X120752072Y-100057000D01*
X120752072Y-99979499D01*
X120735008Y-99806245D01*
X120684472Y-99639649D01*
X120602405Y-99486113D01*
X120491962Y-99351538D01*
X120357387Y-99241095D01*
X120203851Y-99159028D01*
X120037255Y-99108492D01*
X119864001Y-99091428D01*
X116863999Y-99091428D01*
X116690745Y-99108492D01*
X116524149Y-99159028D01*
X116370613Y-99241095D01*
X116236038Y-99351538D01*
X116125595Y-99486113D01*
X116043528Y-99639649D01*
X115992992Y-99806245D01*
X115975928Y-99979499D01*
X115975928Y-100565000D01*
X114883958Y-100565000D01*
X114861308Y-100549866D01*
X114645652Y-100460539D01*
X114499536Y-100431475D01*
X114585185Y-100361185D01*
X114664537Y-100264494D01*
X114723502Y-100154180D01*
X114759812Y-100034482D01*
X114772072Y-99910000D01*
X114772072Y-98210000D01*
X114759812Y-98085518D01*
X114723502Y-97965820D01*
X114664537Y-97855506D01*
X114585185Y-97758815D01*
X114488494Y-97679463D01*
X114378180Y-97620498D01*
X114297534Y-97596034D01*
X114381588Y-97520269D01*
X114555641Y-97286920D01*
X114680825Y-97024099D01*
X114725476Y-96876890D01*
X114647694Y-96729500D01*
X115975928Y-96729500D01*
X115988188Y-96853982D01*
X116024498Y-96973680D01*
X116083463Y-97083994D01*
X116162815Y-97180685D01*
X116259506Y-97260037D01*
X116369820Y-97319002D01*
X116489518Y-97355312D01*
X116614000Y-97367572D01*
X118078250Y-97364500D01*
X118237000Y-97205750D01*
X118237000Y-95494000D01*
X118491000Y-95494000D01*
X118491000Y-97205750D01*
X118649750Y-97364500D01*
X120114000Y-97367572D01*
X120238482Y-97355312D01*
X120358180Y-97319002D01*
X120468494Y-97260037D01*
X120565185Y-97180685D01*
X120644537Y-97083994D01*
X120703502Y-96973680D01*
X120739812Y-96853982D01*
X120752072Y-96729500D01*
X120750977Y-96345500D01*
X122588928Y-96345500D01*
X122601188Y-96469982D01*
X122637498Y-96589680D01*
X122696463Y-96699994D01*
X122775815Y-96796685D01*
X122872506Y-96876037D01*
X122982820Y-96935002D01*
X123102518Y-96971312D01*
X123227000Y-96983572D01*
X123666250Y-96980500D01*
X123825000Y-96821750D01*
X123825000Y-95885000D01*
X124079000Y-95885000D01*
X124079000Y-96821750D01*
X124237750Y-96980500D01*
X124677000Y-96983572D01*
X124801482Y-96971312D01*
X124921180Y-96935002D01*
X125031494Y-96876037D01*
X125128185Y-96796685D01*
X125207537Y-96699994D01*
X125266502Y-96589680D01*
X125302812Y-96469982D01*
X125315072Y-96345500D01*
X125312000Y-96043750D01*
X125153250Y-95885000D01*
X124079000Y-95885000D01*
X123825000Y-95885000D01*
X122750750Y-95885000D01*
X122592000Y-96043750D01*
X122588928Y-96345500D01*
X120750977Y-96345500D01*
X120749000Y-95652750D01*
X120590250Y-95494000D01*
X118491000Y-95494000D01*
X118237000Y-95494000D01*
X116137750Y-95494000D01*
X115979000Y-95652750D01*
X115975928Y-96729500D01*
X114647694Y-96729500D01*
X114604155Y-96647000D01*
X113411000Y-96647000D01*
X113411000Y-96667000D01*
X113157000Y-96667000D01*
X113157000Y-96647000D01*
X111963845Y-96647000D01*
X111842524Y-96876890D01*
X111887175Y-97024099D01*
X112012359Y-97286920D01*
X112186412Y-97520269D01*
X112270466Y-97596034D01*
X112189820Y-97620498D01*
X112079506Y-97679463D01*
X111982815Y-97758815D01*
X111903463Y-97855506D01*
X111844498Y-97965820D01*
X111808188Y-98085518D01*
X111795928Y-98210000D01*
X111795928Y-99910000D01*
X111808188Y-100034482D01*
X111844498Y-100154180D01*
X111903463Y-100264494D01*
X111982815Y-100361185D01*
X112079506Y-100440537D01*
X112189820Y-100499502D01*
X112309518Y-100535812D01*
X112434000Y-100548072D01*
X113743023Y-100548072D01*
X113738692Y-100549866D01*
X113544606Y-100679550D01*
X113379550Y-100844606D01*
X113249866Y-101038692D01*
X113160539Y-101254348D01*
X113115000Y-101483288D01*
X113115000Y-101716712D01*
X113160539Y-101945652D01*
X113249866Y-102161308D01*
X113379550Y-102355394D01*
X113544606Y-102520450D01*
X113738692Y-102650134D01*
X113954348Y-102739461D01*
X114183288Y-102785000D01*
X114416712Y-102785000D01*
X114645652Y-102739461D01*
X114861308Y-102650134D01*
X114883958Y-102635000D01*
X116091981Y-102635000D01*
X116125595Y-102697887D01*
X116236038Y-102832462D01*
X116370613Y-102942905D01*
X116524149Y-103024972D01*
X116690745Y-103075508D01*
X116863999Y-103092572D01*
X119864001Y-103092572D01*
X120037255Y-103075508D01*
X120203851Y-103024972D01*
X120357387Y-102942905D01*
X120491962Y-102832462D01*
X120602405Y-102697887D01*
X120684472Y-102544351D01*
X120735008Y-102377755D01*
X120752072Y-102204501D01*
X120752072Y-102127000D01*
X124539290Y-102127000D01*
X125175198Y-102762909D01*
X125207605Y-102802397D01*
X125247093Y-102834804D01*
X125365203Y-102931735D01*
X125441908Y-102972734D01*
X125545008Y-103027842D01*
X125740106Y-103087025D01*
X125892163Y-103102001D01*
X125892166Y-103102001D01*
X125943001Y-103107008D01*
X125993836Y-103102001D01*
X126861781Y-103102001D01*
X126897039Y-103144963D01*
X127031614Y-103255406D01*
X127185150Y-103337473D01*
X127351746Y-103388009D01*
X127525000Y-103405073D01*
X128225002Y-103405073D01*
X128398256Y-103388009D01*
X128564852Y-103337473D01*
X128718388Y-103255406D01*
X128852963Y-103144963D01*
X128875001Y-103118110D01*
X128897039Y-103144963D01*
X129031614Y-103255406D01*
X129185150Y-103337473D01*
X129351746Y-103388009D01*
X129525000Y-103405073D01*
X130225002Y-103405073D01*
X130398256Y-103388009D01*
X130564852Y-103337473D01*
X130718388Y-103255406D01*
X130852963Y-103144963D01*
X130888221Y-103102001D01*
X131611781Y-103102001D01*
X131647039Y-103144963D01*
X131781614Y-103255406D01*
X131935150Y-103337473D01*
X132101746Y-103388009D01*
X132275000Y-103405073D01*
X132975002Y-103405073D01*
X133148256Y-103388009D01*
X133314852Y-103337473D01*
X133468388Y-103255406D01*
X133549638Y-103188725D01*
X133573816Y-103218186D01*
X133670507Y-103297538D01*
X133780821Y-103356503D01*
X133900519Y-103392813D01*
X134025001Y-103405073D01*
X134339251Y-103402001D01*
X134498001Y-103243251D01*
X134498001Y-102194001D01*
X134752001Y-102194001D01*
X134752001Y-103243251D01*
X134910751Y-103402001D01*
X135225001Y-103405073D01*
X135349483Y-103392813D01*
X135469181Y-103356503D01*
X135579495Y-103297538D01*
X135676186Y-103218186D01*
X135755538Y-103121495D01*
X135814503Y-103011181D01*
X135850813Y-102891483D01*
X135863073Y-102767001D01*
X135860001Y-102352751D01*
X135701251Y-102194001D01*
X134752001Y-102194001D01*
X134498001Y-102194001D01*
X134478001Y-102194001D01*
X134478001Y-101940001D01*
X134498001Y-101940001D01*
X134498001Y-100890751D01*
X134752001Y-100890751D01*
X134752001Y-101940001D01*
X135701251Y-101940001D01*
X135860001Y-101781251D01*
X135863073Y-101367001D01*
X135850813Y-101242519D01*
X135814503Y-101122821D01*
X135755538Y-101012507D01*
X135676186Y-100915816D01*
X135579495Y-100836464D01*
X135469181Y-100777499D01*
X135349483Y-100741189D01*
X135225001Y-100728929D01*
X134910751Y-100732001D01*
X134752001Y-100890751D01*
X134498001Y-100890751D01*
X134339251Y-100732001D01*
X134025001Y-100728929D01*
X133900519Y-100741189D01*
X133780821Y-100777499D01*
X133670507Y-100836464D01*
X133573816Y-100915816D01*
X133549638Y-100945277D01*
X133468388Y-100878596D01*
X133314852Y-100796529D01*
X133148256Y-100745993D01*
X132975002Y-100728929D01*
X132275000Y-100728929D01*
X132101746Y-100745993D01*
X131935150Y-100796529D01*
X131781614Y-100878596D01*
X131647039Y-100989039D01*
X131611781Y-101032001D01*
X131083000Y-101032001D01*
X131083000Y-99872827D01*
X131088006Y-99821999D01*
X131083000Y-99771171D01*
X131083000Y-99771162D01*
X131068024Y-99619105D01*
X131008841Y-99424007D01*
X130914714Y-99247907D01*
X130912734Y-99244202D01*
X130815803Y-99126092D01*
X130783396Y-99086604D01*
X130743908Y-99054197D01*
X129922775Y-98233065D01*
X129917461Y-98206348D01*
X129828134Y-97990692D01*
X129698450Y-97796606D01*
X129533394Y-97631550D01*
X129339308Y-97501866D01*
X129123652Y-97412539D01*
X128894712Y-97367000D01*
X128661288Y-97367000D01*
X128432348Y-97412539D01*
X128216692Y-97501866D01*
X128022606Y-97631550D01*
X127857550Y-97796606D01*
X127727866Y-97990692D01*
X127638539Y-98206348D01*
X127593000Y-98435288D01*
X127593000Y-98668712D01*
X127638539Y-98897652D01*
X127727866Y-99113308D01*
X127857550Y-99307394D01*
X128022606Y-99472450D01*
X128216692Y-99602134D01*
X128432348Y-99691461D01*
X128459065Y-99696775D01*
X129013000Y-100250711D01*
X129013001Y-100893872D01*
X128897039Y-100989039D01*
X128875001Y-101015892D01*
X128852963Y-100989039D01*
X128718388Y-100878596D01*
X128564852Y-100796529D01*
X128398256Y-100745993D01*
X128225002Y-100728929D01*
X127525000Y-100728929D01*
X127351746Y-100745993D01*
X127185150Y-100796529D01*
X127031614Y-100878596D01*
X126897039Y-100989039D01*
X126861781Y-101032001D01*
X126371712Y-101032001D01*
X126003000Y-100663290D01*
X126003000Y-99488710D01*
X127187908Y-98303803D01*
X127227396Y-98271396D01*
X127356734Y-98113797D01*
X127452841Y-97933993D01*
X127512024Y-97738895D01*
X127527000Y-97586838D01*
X127527000Y-97586829D01*
X127532006Y-97536001D01*
X127527000Y-97485173D01*
X127527000Y-94761000D01*
X132130838Y-94761000D01*
X132282895Y-94746024D01*
X132375277Y-94718000D01*
X141319417Y-94718000D01*
X141317815Y-94719315D01*
X141238463Y-94816006D01*
X141179498Y-94926320D01*
X141143188Y-95046018D01*
X141130928Y-95170500D01*
X141134000Y-95472250D01*
X141292750Y-95631000D01*
X142367000Y-95631000D01*
X142367000Y-95611000D01*
X142621000Y-95611000D01*
X142621000Y-95631000D01*
X143695250Y-95631000D01*
X143854000Y-95472250D01*
X143857072Y-95170500D01*
X143844812Y-95046018D01*
X143808502Y-94926320D01*
X143749537Y-94816006D01*
X143670185Y-94719315D01*
X143668583Y-94718000D01*
X146594290Y-94718000D01*
X148838196Y-96961907D01*
X148870604Y-97001396D01*
X148910092Y-97033803D01*
X149028202Y-97130734D01*
X149114733Y-97176985D01*
X149208007Y-97226841D01*
X149403105Y-97286024D01*
X149555162Y-97301000D01*
X149555165Y-97301000D01*
X149606000Y-97306007D01*
X149656835Y-97301000D01*
X155651172Y-97301000D01*
X155702000Y-97306006D01*
X155752828Y-97301000D01*
X155752838Y-97301000D01*
X155904895Y-97286024D01*
X156099993Y-97226841D01*
X156279797Y-97130734D01*
X156437396Y-97001396D01*
X156469807Y-96961903D01*
X158127908Y-95303803D01*
X158167396Y-95271396D01*
X158296734Y-95113797D01*
X158392841Y-94933993D01*
X158452024Y-94738895D01*
X158467000Y-94586838D01*
X158467000Y-94586829D01*
X158472006Y-94536001D01*
X158467000Y-94485173D01*
X158467000Y-91642354D01*
X158557518Y-91669812D01*
X158682000Y-91682072D01*
X159146250Y-91679000D01*
X159305000Y-91520250D01*
X159305000Y-90171000D01*
X159285000Y-90171000D01*
X159285000Y-89917000D01*
X159305000Y-89917000D01*
X159305000Y-89897000D01*
X159559000Y-89897000D01*
X159559000Y-89917000D01*
X159579000Y-89917000D01*
X159579000Y-90171000D01*
X159559000Y-90171000D01*
X159559000Y-91520250D01*
X159717750Y-91679000D01*
X160182000Y-91682072D01*
X160306482Y-91669812D01*
X160426180Y-91633502D01*
X160432000Y-91630391D01*
X160437820Y-91633502D01*
X160509000Y-91655094D01*
X160509000Y-92760837D01*
X160509001Y-92760847D01*
X160509000Y-96215172D01*
X160503994Y-96266000D01*
X160509000Y-96316828D01*
X160509000Y-96316837D01*
X160523976Y-96468894D01*
X160583159Y-96663992D01*
X160679266Y-96843797D01*
X160808604Y-97001396D01*
X160848097Y-97033807D01*
X162554197Y-98739908D01*
X162586604Y-98779396D01*
X162626092Y-98811803D01*
X162744202Y-98908734D01*
X162821393Y-98949993D01*
X162924007Y-99004841D01*
X163119105Y-99064024D01*
X163271162Y-99079000D01*
X163271165Y-99079000D01*
X163322000Y-99084007D01*
X163372835Y-99079000D01*
X164784809Y-99079000D01*
X164826815Y-99130185D01*
X164923506Y-99209537D01*
X165033820Y-99268502D01*
X165153518Y-99304812D01*
X165278000Y-99317072D01*
X168479001Y-99317072D01*
X168479001Y-99556773D01*
X167163750Y-99559000D01*
X167005000Y-99717750D01*
X167005000Y-100742000D01*
X167025000Y-100742000D01*
X167025000Y-100996000D01*
X167005000Y-100996000D01*
X167005000Y-102020250D01*
X167163750Y-102179000D01*
X168479001Y-102181227D01*
X168479001Y-107011000D01*
X162819930Y-107011000D01*
X162817000Y-106329750D01*
X162658250Y-106171000D01*
X161559000Y-106171000D01*
X161559000Y-106191000D01*
X161305000Y-106191000D01*
X161305000Y-106171000D01*
X161285000Y-106171000D01*
X161285000Y-105917000D01*
X161305000Y-105917000D01*
X161305000Y-104567750D01*
X161559000Y-104567750D01*
X161559000Y-105917000D01*
X162658250Y-105917000D01*
X162817000Y-105758250D01*
X162820072Y-105044000D01*
X162807812Y-104919518D01*
X162771502Y-104799820D01*
X162712537Y-104689506D01*
X162633185Y-104592815D01*
X162536494Y-104513463D01*
X162426180Y-104454498D01*
X162306482Y-104418188D01*
X162182000Y-104405928D01*
X161717750Y-104409000D01*
X161559000Y-104567750D01*
X161305000Y-104567750D01*
X161146250Y-104409000D01*
X160682000Y-104405928D01*
X160557518Y-104418188D01*
X160547000Y-104421379D01*
X160547000Y-104215958D01*
X160562134Y-104193308D01*
X160651461Y-103977652D01*
X160697000Y-103748712D01*
X160697000Y-103515288D01*
X160651461Y-103286348D01*
X160562134Y-103070692D01*
X160432450Y-102876606D01*
X160267394Y-102711550D01*
X160073308Y-102581866D01*
X159857652Y-102492539D01*
X159628712Y-102447000D01*
X159395288Y-102447000D01*
X159166348Y-102492539D01*
X158950692Y-102581866D01*
X158756606Y-102711550D01*
X158591550Y-102876606D01*
X158461866Y-103070692D01*
X158372539Y-103286348D01*
X158327000Y-103515288D01*
X158327000Y-103666827D01*
X158297682Y-103611976D01*
X158296734Y-103610202D01*
X158199803Y-103492092D01*
X158167396Y-103452604D01*
X158127908Y-103420197D01*
X156251711Y-101544000D01*
X164139928Y-101544000D01*
X164152188Y-101668482D01*
X164188498Y-101788180D01*
X164247463Y-101898494D01*
X164326815Y-101995185D01*
X164423506Y-102074537D01*
X164533820Y-102133502D01*
X164653518Y-102169812D01*
X164778000Y-102182072D01*
X166592250Y-102179000D01*
X166751000Y-102020250D01*
X166751000Y-100996000D01*
X164301750Y-100996000D01*
X164143000Y-101154750D01*
X164139928Y-101544000D01*
X156251711Y-101544000D01*
X154901711Y-100194000D01*
X164139928Y-100194000D01*
X164143000Y-100583250D01*
X164301750Y-100742000D01*
X166751000Y-100742000D01*
X166751000Y-99717750D01*
X166592250Y-99559000D01*
X164778000Y-99555928D01*
X164653518Y-99568188D01*
X164533820Y-99604498D01*
X164423506Y-99663463D01*
X164326815Y-99742815D01*
X164247463Y-99839506D01*
X164188498Y-99949820D01*
X164152188Y-100069518D01*
X164139928Y-100194000D01*
X154901711Y-100194000D01*
X153325807Y-98618097D01*
X153293396Y-98578604D01*
X153135797Y-98449266D01*
X152955993Y-98353159D01*
X152760895Y-98293976D01*
X152608838Y-98279000D01*
X152608828Y-98279000D01*
X152558000Y-98273994D01*
X152507172Y-98279000D01*
X142160711Y-98279000D01*
X140590775Y-96709065D01*
X140585461Y-96682348D01*
X140496134Y-96466692D01*
X140415157Y-96345500D01*
X141130928Y-96345500D01*
X141143188Y-96469982D01*
X141179498Y-96589680D01*
X141238463Y-96699994D01*
X141317815Y-96796685D01*
X141414506Y-96876037D01*
X141524820Y-96935002D01*
X141644518Y-96971312D01*
X141769000Y-96983572D01*
X142208250Y-96980500D01*
X142367000Y-96821750D01*
X142367000Y-95885000D01*
X142621000Y-95885000D01*
X142621000Y-96821750D01*
X142779750Y-96980500D01*
X143219000Y-96983572D01*
X143343482Y-96971312D01*
X143463180Y-96935002D01*
X143573494Y-96876037D01*
X143670185Y-96796685D01*
X143749537Y-96699994D01*
X143808502Y-96589680D01*
X143844812Y-96469982D01*
X143857072Y-96345500D01*
X143854000Y-96043750D01*
X143695250Y-95885000D01*
X142621000Y-95885000D01*
X142367000Y-95885000D01*
X141292750Y-95885000D01*
X141134000Y-96043750D01*
X141130928Y-96345500D01*
X140415157Y-96345500D01*
X140366450Y-96272606D01*
X140201394Y-96107550D01*
X140007308Y-95977866D01*
X139791652Y-95888539D01*
X139562712Y-95843000D01*
X139329288Y-95843000D01*
X139100348Y-95888539D01*
X138884692Y-95977866D01*
X138690606Y-96107550D01*
X138525550Y-96272606D01*
X138395866Y-96466692D01*
X138306539Y-96682348D01*
X138261000Y-96911288D01*
X138261000Y-96919290D01*
X138050775Y-96709065D01*
X138045461Y-96682348D01*
X137956134Y-96466692D01*
X137826450Y-96272606D01*
X137661394Y-96107550D01*
X137467308Y-95977866D01*
X137251652Y-95888539D01*
X137022712Y-95843000D01*
X136789288Y-95843000D01*
X136560348Y-95888539D01*
X136344692Y-95977866D01*
X136150606Y-96107550D01*
X135985550Y-96272606D01*
X135855866Y-96466692D01*
X135766539Y-96682348D01*
X135721000Y-96911288D01*
X135721000Y-96919290D01*
X135510775Y-96709065D01*
X135505461Y-96682348D01*
X135416134Y-96466692D01*
X135286450Y-96272606D01*
X135121394Y-96107550D01*
X134927308Y-95977866D01*
X134711652Y-95888539D01*
X134482712Y-95843000D01*
X134249288Y-95843000D01*
X134020348Y-95888539D01*
X133804692Y-95977866D01*
X133610606Y-96107550D01*
X133445550Y-96272606D01*
X133315866Y-96466692D01*
X133226539Y-96682348D01*
X133181000Y-96911288D01*
X133181000Y-97144712D01*
X133226539Y-97373652D01*
X133315866Y-97589308D01*
X133445550Y-97783394D01*
X133610606Y-97948450D01*
X133804692Y-98078134D01*
X134020348Y-98167461D01*
X134047065Y-98172775D01*
X138678196Y-102803907D01*
X138710604Y-102843396D01*
X138750092Y-102875803D01*
X138868202Y-102972734D01*
X138938649Y-103010388D01*
X139048007Y-103068841D01*
X139243105Y-103128024D01*
X139395162Y-103143000D01*
X139395165Y-103143000D01*
X139446000Y-103148007D01*
X139496835Y-103143000D01*
X150193290Y-103143000D01*
X151456217Y-104405928D01*
X150682000Y-104405928D01*
X150557518Y-104418188D01*
X150437820Y-104454498D01*
X150432000Y-104457609D01*
X150426180Y-104454498D01*
X150306482Y-104418188D01*
X150182000Y-104405928D01*
X148682000Y-104405928D01*
X148557518Y-104418188D01*
X148437820Y-104454498D01*
X148432000Y-104457609D01*
X148426180Y-104454498D01*
X148306482Y-104418188D01*
X148182000Y-104405928D01*
X147717750Y-104409000D01*
X147559000Y-104567750D01*
X147559000Y-105917000D01*
X147579000Y-105917000D01*
X147579000Y-106171000D01*
X147559000Y-106171000D01*
X147559000Y-106191000D01*
X147305000Y-106191000D01*
X147305000Y-106171000D01*
X146205750Y-106171000D01*
X146047000Y-106329750D01*
X146044070Y-107011000D01*
X142483888Y-107011000D01*
X142665727Y-106935680D01*
X142900759Y-106778637D01*
X143100637Y-106578759D01*
X143257680Y-106343727D01*
X143365853Y-106082574D01*
X143421000Y-105805335D01*
X143421000Y-105522665D01*
X143365853Y-105245426D01*
X143282420Y-105044000D01*
X146043928Y-105044000D01*
X146047000Y-105758250D01*
X146205750Y-105917000D01*
X147305000Y-105917000D01*
X147305000Y-104567750D01*
X147146250Y-104409000D01*
X146682000Y-104405928D01*
X146557518Y-104418188D01*
X146437820Y-104454498D01*
X146327506Y-104513463D01*
X146230815Y-104592815D01*
X146151463Y-104689506D01*
X146092498Y-104799820D01*
X146056188Y-104919518D01*
X146043928Y-105044000D01*
X143282420Y-105044000D01*
X143257680Y-104984273D01*
X143100637Y-104749241D01*
X142900759Y-104549363D01*
X142665727Y-104392320D01*
X142404574Y-104284147D01*
X142127335Y-104229000D01*
X141844665Y-104229000D01*
X141567426Y-104284147D01*
X141306273Y-104392320D01*
X141071241Y-104549363D01*
X140871363Y-104749241D01*
X140716000Y-104981759D01*
X140560637Y-104749241D01*
X140360759Y-104549363D01*
X140125727Y-104392320D01*
X139864574Y-104284147D01*
X139587335Y-104229000D01*
X139304665Y-104229000D01*
X139027426Y-104284147D01*
X138766273Y-104392320D01*
X138531241Y-104549363D01*
X138331363Y-104749241D01*
X138176000Y-104981759D01*
X138020637Y-104749241D01*
X137820759Y-104549363D01*
X137585727Y-104392320D01*
X137324574Y-104284147D01*
X137047335Y-104229000D01*
X136764665Y-104229000D01*
X136487426Y-104284147D01*
X136226273Y-104392320D01*
X135991241Y-104549363D01*
X135791363Y-104749241D01*
X135636000Y-104981759D01*
X135480637Y-104749241D01*
X135280759Y-104549363D01*
X135045727Y-104392320D01*
X134784574Y-104284147D01*
X134507335Y-104229000D01*
X134224665Y-104229000D01*
X133947426Y-104284147D01*
X133686273Y-104392320D01*
X133451241Y-104549363D01*
X133251363Y-104749241D01*
X133096000Y-104981759D01*
X132940637Y-104749241D01*
X132740759Y-104549363D01*
X132505727Y-104392320D01*
X132244574Y-104284147D01*
X131967335Y-104229000D01*
X131684665Y-104229000D01*
X131407426Y-104284147D01*
X131146273Y-104392320D01*
X130911241Y-104549363D01*
X130711363Y-104749241D01*
X130556000Y-104981759D01*
X130400637Y-104749241D01*
X130200759Y-104549363D01*
X129965727Y-104392320D01*
X129704574Y-104284147D01*
X129427335Y-104229000D01*
X129144665Y-104229000D01*
X128867426Y-104284147D01*
X128606273Y-104392320D01*
X128371241Y-104549363D01*
X128171363Y-104749241D01*
X128016000Y-104981759D01*
X127860637Y-104749241D01*
X127660759Y-104549363D01*
X127425727Y-104392320D01*
X127164574Y-104284147D01*
X126887335Y-104229000D01*
X126604665Y-104229000D01*
X126327426Y-104284147D01*
X126066273Y-104392320D01*
X125831241Y-104549363D01*
X125631363Y-104749241D01*
X125476000Y-104981759D01*
X125320637Y-104749241D01*
X125120759Y-104549363D01*
X124885727Y-104392320D01*
X124624574Y-104284147D01*
X124347335Y-104229000D01*
X124064665Y-104229000D01*
X123787426Y-104284147D01*
X123526273Y-104392320D01*
X123291241Y-104549363D01*
X123091363Y-104749241D01*
X122935085Y-104983128D01*
X122902671Y-104922486D01*
X122658702Y-104850903D01*
X121845605Y-105664000D01*
X122658702Y-106477097D01*
X122902671Y-106405514D01*
X122933194Y-106341008D01*
X122934320Y-106343727D01*
X123091363Y-106578759D01*
X123291241Y-106778637D01*
X123526273Y-106935680D01*
X123708112Y-107011000D01*
X122160941Y-107011000D01*
X122282292Y-106967603D01*
X122407514Y-106900671D01*
X122479097Y-106656702D01*
X121666000Y-105843605D01*
X120852903Y-106656702D01*
X120924486Y-106900671D01*
X121157655Y-107011000D01*
X119620941Y-107011000D01*
X119742292Y-106967603D01*
X119867514Y-106900671D01*
X119939097Y-106656702D01*
X119126000Y-105843605D01*
X118312903Y-106656702D01*
X118384486Y-106900671D01*
X118617655Y-107011000D01*
X117083888Y-107011000D01*
X117265727Y-106935680D01*
X117500759Y-106778637D01*
X117700637Y-106578759D01*
X117856915Y-106344872D01*
X117889329Y-106405514D01*
X118133298Y-106477097D01*
X118946395Y-105664000D01*
X119305605Y-105664000D01*
X120118702Y-106477097D01*
X120362671Y-106405514D01*
X120393971Y-106339364D01*
X120429329Y-106405514D01*
X120673298Y-106477097D01*
X121486395Y-105664000D01*
X120673298Y-104850903D01*
X120429329Y-104922486D01*
X120398029Y-104988636D01*
X120362671Y-104922486D01*
X120118702Y-104850903D01*
X119305605Y-105664000D01*
X118946395Y-105664000D01*
X118133298Y-104850903D01*
X117889329Y-104922486D01*
X117858806Y-104986992D01*
X117857680Y-104984273D01*
X117700637Y-104749241D01*
X117622694Y-104671298D01*
X118312903Y-104671298D01*
X119126000Y-105484395D01*
X119939097Y-104671298D01*
X120852903Y-104671298D01*
X121666000Y-105484395D01*
X122479097Y-104671298D01*
X122407514Y-104427329D01*
X122152004Y-104306429D01*
X121877816Y-104237700D01*
X121595488Y-104223783D01*
X121315870Y-104265213D01*
X121049708Y-104360397D01*
X120924486Y-104427329D01*
X120852903Y-104671298D01*
X119939097Y-104671298D01*
X119867514Y-104427329D01*
X119612004Y-104306429D01*
X119337816Y-104237700D01*
X119055488Y-104223783D01*
X118775870Y-104265213D01*
X118509708Y-104360397D01*
X118384486Y-104427329D01*
X118312903Y-104671298D01*
X117622694Y-104671298D01*
X117500759Y-104549363D01*
X117265727Y-104392320D01*
X117004574Y-104284147D01*
X116727335Y-104229000D01*
X116444665Y-104229000D01*
X116167426Y-104284147D01*
X115906273Y-104392320D01*
X115671241Y-104549363D01*
X115472643Y-104747961D01*
X115471812Y-104739518D01*
X115435502Y-104619820D01*
X115376537Y-104509506D01*
X115297185Y-104412815D01*
X115200494Y-104333463D01*
X115090180Y-104274498D01*
X114970482Y-104238188D01*
X114846000Y-104225928D01*
X113246000Y-104225928D01*
X113121518Y-104238188D01*
X113001820Y-104274498D01*
X112891506Y-104333463D01*
X112794815Y-104412815D01*
X112715463Y-104509506D01*
X112656498Y-104619820D01*
X112620188Y-104739518D01*
X112607928Y-104864000D01*
X112607928Y-106464000D01*
X112620188Y-106588482D01*
X112656498Y-106708180D01*
X112715463Y-106818494D01*
X112794815Y-106915185D01*
X112891506Y-106994537D01*
X112922306Y-107011000D01*
X110921000Y-107011000D01*
X110921000Y-96163110D01*
X111842524Y-96163110D01*
X111963845Y-96393000D01*
X113157000Y-96393000D01*
X113157000Y-95199186D01*
X113411000Y-95199186D01*
X113411000Y-96393000D01*
X114604155Y-96393000D01*
X114725476Y-96163110D01*
X114680825Y-96015901D01*
X114555641Y-95753080D01*
X114381588Y-95519731D01*
X114165355Y-95324822D01*
X113915252Y-95175843D01*
X113640891Y-95078519D01*
X113411000Y-95199186D01*
X113157000Y-95199186D01*
X112927109Y-95078519D01*
X112652748Y-95175843D01*
X112402645Y-95324822D01*
X112186412Y-95519731D01*
X112012359Y-95753080D01*
X111887175Y-96015901D01*
X111842524Y-96163110D01*
X110921000Y-96163110D01*
X110921000Y-94004500D01*
X115975928Y-94004500D01*
X115979000Y-95081250D01*
X116137750Y-95240000D01*
X118237000Y-95240000D01*
X118237000Y-93528250D01*
X118491000Y-93528250D01*
X118491000Y-95240000D01*
X120590250Y-95240000D01*
X120749000Y-95081250D01*
X120752072Y-94004500D01*
X120739812Y-93880018D01*
X120703502Y-93760320D01*
X120644537Y-93650006D01*
X120565185Y-93553315D01*
X120468494Y-93473963D01*
X120358180Y-93414998D01*
X120238482Y-93378688D01*
X120114000Y-93366428D01*
X118649750Y-93369500D01*
X118491000Y-93528250D01*
X118237000Y-93528250D01*
X118078250Y-93369500D01*
X116614000Y-93366428D01*
X116489518Y-93378688D01*
X116369820Y-93414998D01*
X116259506Y-93473963D01*
X116162815Y-93553315D01*
X116083463Y-93650006D01*
X116024498Y-93760320D01*
X115988188Y-93880018D01*
X115975928Y-94004500D01*
X110921000Y-94004500D01*
X110921000Y-89077000D01*
X113548112Y-89077000D01*
X113366273Y-89152320D01*
%TA.AperFunction,Conductor*%
D22*
G36*
X113366273Y-89152320D02*
G01*
X113131241Y-89309363D01*
X112931363Y-89509241D01*
X112774320Y-89744273D01*
X112666147Y-90005426D01*
X112611000Y-90282665D01*
X112611000Y-90565335D01*
X112666147Y-90842574D01*
X112774320Y-91103727D01*
X112931363Y-91338759D01*
X113131241Y-91538637D01*
X113366273Y-91695680D01*
X113627426Y-91803853D01*
X113904665Y-91859000D01*
X114187335Y-91859000D01*
X114464574Y-91803853D01*
X114725727Y-91695680D01*
X114960759Y-91538637D01*
X115082694Y-91416702D01*
X115772903Y-91416702D01*
X115844486Y-91660671D01*
X116099996Y-91781571D01*
X116374184Y-91850300D01*
X116656512Y-91864217D01*
X116936130Y-91822787D01*
X117202292Y-91727603D01*
X117327514Y-91660671D01*
X117399097Y-91416702D01*
X116586000Y-90603605D01*
X115772903Y-91416702D01*
X115082694Y-91416702D01*
X115160637Y-91338759D01*
X115316915Y-91104872D01*
X115349329Y-91165514D01*
X115593298Y-91237097D01*
X116406395Y-90424000D01*
X115593298Y-89610903D01*
X115349329Y-89682486D01*
X115318806Y-89746992D01*
X115317680Y-89744273D01*
X115160637Y-89509241D01*
X114960759Y-89309363D01*
X114725727Y-89152320D01*
X114543888Y-89077000D01*
X116091059Y-89077000D01*
X115969708Y-89120397D01*
X115844486Y-89187329D01*
X115772903Y-89431298D01*
X116586000Y-90244395D01*
X117399097Y-89431298D01*
X117327514Y-89187329D01*
X117094345Y-89077000D01*
X118628112Y-89077000D01*
X118446273Y-89152320D01*
X118211241Y-89309363D01*
X118011363Y-89509241D01*
X117855085Y-89743128D01*
X117822671Y-89682486D01*
X117578702Y-89610903D01*
X116765605Y-90424000D01*
X117578702Y-91237097D01*
X117822671Y-91165514D01*
X117853194Y-91101008D01*
X117854320Y-91103727D01*
X118011363Y-91338759D01*
X118211241Y-91538637D01*
X118446273Y-91695680D01*
X118707426Y-91803853D01*
X118984665Y-91859000D01*
X119267335Y-91859000D01*
X119544574Y-91803853D01*
X119805727Y-91695680D01*
X120040759Y-91538637D01*
X120240637Y-91338759D01*
X120396000Y-91106241D01*
X120551363Y-91338759D01*
X120751241Y-91538637D01*
X120986273Y-91695680D01*
X121247426Y-91803853D01*
X121335884Y-91821449D01*
X121320348Y-91824539D01*
X121104692Y-91913866D01*
X120910606Y-92043550D01*
X120745550Y-92208606D01*
X120615866Y-92402692D01*
X120526539Y-92618348D01*
X120481000Y-92847288D01*
X120481000Y-93080712D01*
X120526539Y-93309652D01*
X120615866Y-93525308D01*
X120745550Y-93719394D01*
X120910606Y-93884450D01*
X121104692Y-94014134D01*
X121320348Y-94103461D01*
X121347065Y-94108775D01*
X121617196Y-94378907D01*
X121649604Y-94418396D01*
X121689092Y-94450803D01*
X121807202Y-94547734D01*
X121987006Y-94643841D01*
X122002240Y-94648462D01*
X122182105Y-94703024D01*
X122334162Y-94718000D01*
X122334165Y-94718000D01*
X122385000Y-94723007D01*
X122435835Y-94718000D01*
X122777417Y-94718000D01*
X122775815Y-94719315D01*
X122696463Y-94816006D01*
X122637498Y-94926320D01*
X122601188Y-95046018D01*
X122588928Y-95170500D01*
X122592000Y-95472250D01*
X122750750Y-95631000D01*
X123825000Y-95631000D01*
X123825000Y-95611000D01*
X124079000Y-95611000D01*
X124079000Y-95631000D01*
X125153250Y-95631000D01*
X125312000Y-95472250D01*
X125315072Y-95170500D01*
X125302812Y-95046018D01*
X125266502Y-94926320D01*
X125207537Y-94816006D01*
X125162395Y-94761000D01*
X125457001Y-94761000D01*
X125457000Y-97107289D01*
X124272092Y-98292198D01*
X124232605Y-98324604D01*
X124200198Y-98364092D01*
X124200197Y-98364093D01*
X124103266Y-98482203D01*
X124007160Y-98662007D01*
X123947977Y-98857105D01*
X123927994Y-99060000D01*
X123933001Y-99110837D01*
X123933001Y-100057000D01*
X120752072Y-100057000D01*
X120752072Y-99979499D01*
X120735008Y-99806245D01*
X120684472Y-99639649D01*
X120602405Y-99486113D01*
X120491962Y-99351538D01*
X120357387Y-99241095D01*
X120203851Y-99159028D01*
X120037255Y-99108492D01*
X119864001Y-99091428D01*
X116863999Y-99091428D01*
X116690745Y-99108492D01*
X116524149Y-99159028D01*
X116370613Y-99241095D01*
X116236038Y-99351538D01*
X116125595Y-99486113D01*
X116043528Y-99639649D01*
X115992992Y-99806245D01*
X115975928Y-99979499D01*
X115975928Y-100565000D01*
X114883958Y-100565000D01*
X114861308Y-100549866D01*
X114645652Y-100460539D01*
X114499536Y-100431475D01*
X114585185Y-100361185D01*
X114664537Y-100264494D01*
X114723502Y-100154180D01*
X114759812Y-100034482D01*
X114772072Y-99910000D01*
X114772072Y-98210000D01*
X114759812Y-98085518D01*
X114723502Y-97965820D01*
X114664537Y-97855506D01*
X114585185Y-97758815D01*
X114488494Y-97679463D01*
X114378180Y-97620498D01*
X114297534Y-97596034D01*
X114381588Y-97520269D01*
X114555641Y-97286920D01*
X114680825Y-97024099D01*
X114725476Y-96876890D01*
X114647694Y-96729500D01*
X115975928Y-96729500D01*
X115988188Y-96853982D01*
X116024498Y-96973680D01*
X116083463Y-97083994D01*
X116162815Y-97180685D01*
X116259506Y-97260037D01*
X116369820Y-97319002D01*
X116489518Y-97355312D01*
X116614000Y-97367572D01*
X118078250Y-97364500D01*
X118237000Y-97205750D01*
X118237000Y-95494000D01*
X118491000Y-95494000D01*
X118491000Y-97205750D01*
X118649750Y-97364500D01*
X120114000Y-97367572D01*
X120238482Y-97355312D01*
X120358180Y-97319002D01*
X120468494Y-97260037D01*
X120565185Y-97180685D01*
X120644537Y-97083994D01*
X120703502Y-96973680D01*
X120739812Y-96853982D01*
X120752072Y-96729500D01*
X120750977Y-96345500D01*
X122588928Y-96345500D01*
X122601188Y-96469982D01*
X122637498Y-96589680D01*
X122696463Y-96699994D01*
X122775815Y-96796685D01*
X122872506Y-96876037D01*
X122982820Y-96935002D01*
X123102518Y-96971312D01*
X123227000Y-96983572D01*
X123666250Y-96980500D01*
X123825000Y-96821750D01*
X123825000Y-95885000D01*
X124079000Y-95885000D01*
X124079000Y-96821750D01*
X124237750Y-96980500D01*
X124677000Y-96983572D01*
X124801482Y-96971312D01*
X124921180Y-96935002D01*
X125031494Y-96876037D01*
X125128185Y-96796685D01*
X125207537Y-96699994D01*
X125266502Y-96589680D01*
X125302812Y-96469982D01*
X125315072Y-96345500D01*
X125312000Y-96043750D01*
X125153250Y-95885000D01*
X124079000Y-95885000D01*
X123825000Y-95885000D01*
X122750750Y-95885000D01*
X122592000Y-96043750D01*
X122588928Y-96345500D01*
X120750977Y-96345500D01*
X120749000Y-95652750D01*
X120590250Y-95494000D01*
X118491000Y-95494000D01*
X118237000Y-95494000D01*
X116137750Y-95494000D01*
X115979000Y-95652750D01*
X115975928Y-96729500D01*
X114647694Y-96729500D01*
X114604155Y-96647000D01*
X113411000Y-96647000D01*
X113411000Y-96667000D01*
X113157000Y-96667000D01*
X113157000Y-96647000D01*
X111963845Y-96647000D01*
X111842524Y-96876890D01*
X111887175Y-97024099D01*
X112012359Y-97286920D01*
X112186412Y-97520269D01*
X112270466Y-97596034D01*
X112189820Y-97620498D01*
X112079506Y-97679463D01*
X111982815Y-97758815D01*
X111903463Y-97855506D01*
X111844498Y-97965820D01*
X111808188Y-98085518D01*
X111795928Y-98210000D01*
X111795928Y-99910000D01*
X111808188Y-100034482D01*
X111844498Y-100154180D01*
X111903463Y-100264494D01*
X111982815Y-100361185D01*
X112079506Y-100440537D01*
X112189820Y-100499502D01*
X112309518Y-100535812D01*
X112434000Y-100548072D01*
X113743023Y-100548072D01*
X113738692Y-100549866D01*
X113544606Y-100679550D01*
X113379550Y-100844606D01*
X113249866Y-101038692D01*
X113160539Y-101254348D01*
X113115000Y-101483288D01*
X113115000Y-101716712D01*
X113160539Y-101945652D01*
X113249866Y-102161308D01*
X113379550Y-102355394D01*
X113544606Y-102520450D01*
X113738692Y-102650134D01*
X113954348Y-102739461D01*
X114183288Y-102785000D01*
X114416712Y-102785000D01*
X114645652Y-102739461D01*
X114861308Y-102650134D01*
X114883958Y-102635000D01*
X116091981Y-102635000D01*
X116125595Y-102697887D01*
X116236038Y-102832462D01*
X116370613Y-102942905D01*
X116524149Y-103024972D01*
X116690745Y-103075508D01*
X116863999Y-103092572D01*
X119864001Y-103092572D01*
X120037255Y-103075508D01*
X120203851Y-103024972D01*
X120357387Y-102942905D01*
X120491962Y-102832462D01*
X120602405Y-102697887D01*
X120684472Y-102544351D01*
X120735008Y-102377755D01*
X120752072Y-102204501D01*
X120752072Y-102127000D01*
X124539290Y-102127000D01*
X125175198Y-102762909D01*
X125207605Y-102802397D01*
X125247093Y-102834804D01*
X125365203Y-102931735D01*
X125441908Y-102972734D01*
X125545008Y-103027842D01*
X125740106Y-103087025D01*
X125892163Y-103102001D01*
X125892166Y-103102001D01*
X125943001Y-103107008D01*
X125993836Y-103102001D01*
X126861781Y-103102001D01*
X126897039Y-103144963D01*
X127031614Y-103255406D01*
X127185150Y-103337473D01*
X127351746Y-103388009D01*
X127525000Y-103405073D01*
X128225002Y-103405073D01*
X128398256Y-103388009D01*
X128564852Y-103337473D01*
X128718388Y-103255406D01*
X128852963Y-103144963D01*
X128875001Y-103118110D01*
X128897039Y-103144963D01*
X129031614Y-103255406D01*
X129185150Y-103337473D01*
X129351746Y-103388009D01*
X129525000Y-103405073D01*
X130225002Y-103405073D01*
X130398256Y-103388009D01*
X130564852Y-103337473D01*
X130718388Y-103255406D01*
X130852963Y-103144963D01*
X130888221Y-103102001D01*
X131611781Y-103102001D01*
X131647039Y-103144963D01*
X131781614Y-103255406D01*
X131935150Y-103337473D01*
X132101746Y-103388009D01*
X132275000Y-103405073D01*
X132975002Y-103405073D01*
X133148256Y-103388009D01*
X133314852Y-103337473D01*
X133468388Y-103255406D01*
X133549638Y-103188725D01*
X133573816Y-103218186D01*
X133670507Y-103297538D01*
X133780821Y-103356503D01*
X133900519Y-103392813D01*
X134025001Y-103405073D01*
X134339251Y-103402001D01*
X134498001Y-103243251D01*
X134498001Y-102194001D01*
X134752001Y-102194001D01*
X134752001Y-103243251D01*
X134910751Y-103402001D01*
X135225001Y-103405073D01*
X135349483Y-103392813D01*
X135469181Y-103356503D01*
X135579495Y-103297538D01*
X135676186Y-103218186D01*
X135755538Y-103121495D01*
X135814503Y-103011181D01*
X135850813Y-102891483D01*
X135863073Y-102767001D01*
X135860001Y-102352751D01*
X135701251Y-102194001D01*
X134752001Y-102194001D01*
X134498001Y-102194001D01*
X134478001Y-102194001D01*
X134478001Y-101940001D01*
X134498001Y-101940001D01*
X134498001Y-100890751D01*
X134752001Y-100890751D01*
X134752001Y-101940001D01*
X135701251Y-101940001D01*
X135860001Y-101781251D01*
X135863073Y-101367001D01*
X135850813Y-101242519D01*
X135814503Y-101122821D01*
X135755538Y-101012507D01*
X135676186Y-100915816D01*
X135579495Y-100836464D01*
X135469181Y-100777499D01*
X135349483Y-100741189D01*
X135225001Y-100728929D01*
X134910751Y-100732001D01*
X134752001Y-100890751D01*
X134498001Y-100890751D01*
X134339251Y-100732001D01*
X134025001Y-100728929D01*
X133900519Y-100741189D01*
X133780821Y-100777499D01*
X133670507Y-100836464D01*
X133573816Y-100915816D01*
X133549638Y-100945277D01*
X133468388Y-100878596D01*
X133314852Y-100796529D01*
X133148256Y-100745993D01*
X132975002Y-100728929D01*
X132275000Y-100728929D01*
X132101746Y-100745993D01*
X131935150Y-100796529D01*
X131781614Y-100878596D01*
X131647039Y-100989039D01*
X131611781Y-101032001D01*
X131083000Y-101032001D01*
X131083000Y-99872827D01*
X131088006Y-99821999D01*
X131083000Y-99771171D01*
X131083000Y-99771162D01*
X131068024Y-99619105D01*
X131008841Y-99424007D01*
X130914714Y-99247907D01*
X130912734Y-99244202D01*
X130815803Y-99126092D01*
X130783396Y-99086604D01*
X130743908Y-99054197D01*
X129922775Y-98233065D01*
X129917461Y-98206348D01*
X129828134Y-97990692D01*
X129698450Y-97796606D01*
X129533394Y-97631550D01*
X129339308Y-97501866D01*
X129123652Y-97412539D01*
X128894712Y-97367000D01*
X128661288Y-97367000D01*
X128432348Y-97412539D01*
X128216692Y-97501866D01*
X128022606Y-97631550D01*
X127857550Y-97796606D01*
X127727866Y-97990692D01*
X127638539Y-98206348D01*
X127593000Y-98435288D01*
X127593000Y-98668712D01*
X127638539Y-98897652D01*
X127727866Y-99113308D01*
X127857550Y-99307394D01*
X128022606Y-99472450D01*
X128216692Y-99602134D01*
X128432348Y-99691461D01*
X128459065Y-99696775D01*
X129013000Y-100250711D01*
X129013001Y-100893872D01*
X128897039Y-100989039D01*
X128875001Y-101015892D01*
X128852963Y-100989039D01*
X128718388Y-100878596D01*
X128564852Y-100796529D01*
X128398256Y-100745993D01*
X128225002Y-100728929D01*
X127525000Y-100728929D01*
X127351746Y-100745993D01*
X127185150Y-100796529D01*
X127031614Y-100878596D01*
X126897039Y-100989039D01*
X126861781Y-101032001D01*
X126371712Y-101032001D01*
X126003000Y-100663290D01*
X126003000Y-99488710D01*
X127187908Y-98303803D01*
X127227396Y-98271396D01*
X127356734Y-98113797D01*
X127452841Y-97933993D01*
X127512024Y-97738895D01*
X127527000Y-97586838D01*
X127527000Y-97586829D01*
X127532006Y-97536001D01*
X127527000Y-97485173D01*
X127527000Y-94761000D01*
X132130838Y-94761000D01*
X132282895Y-94746024D01*
X132375277Y-94718000D01*
X141319417Y-94718000D01*
X141317815Y-94719315D01*
X141238463Y-94816006D01*
X141179498Y-94926320D01*
X141143188Y-95046018D01*
X141130928Y-95170500D01*
X141134000Y-95472250D01*
X141292750Y-95631000D01*
X142367000Y-95631000D01*
X142367000Y-95611000D01*
X142621000Y-95611000D01*
X142621000Y-95631000D01*
X143695250Y-95631000D01*
X143854000Y-95472250D01*
X143857072Y-95170500D01*
X143844812Y-95046018D01*
X143808502Y-94926320D01*
X143749537Y-94816006D01*
X143670185Y-94719315D01*
X143668583Y-94718000D01*
X146594290Y-94718000D01*
X148838196Y-96961907D01*
X148870604Y-97001396D01*
X148910092Y-97033803D01*
X149028202Y-97130734D01*
X149114733Y-97176985D01*
X149208007Y-97226841D01*
X149403105Y-97286024D01*
X149555162Y-97301000D01*
X149555165Y-97301000D01*
X149606000Y-97306007D01*
X149656835Y-97301000D01*
X155651172Y-97301000D01*
X155702000Y-97306006D01*
X155752828Y-97301000D01*
X155752838Y-97301000D01*
X155904895Y-97286024D01*
X156099993Y-97226841D01*
X156279797Y-97130734D01*
X156437396Y-97001396D01*
X156469807Y-96961903D01*
X158127908Y-95303803D01*
X158167396Y-95271396D01*
X158296734Y-95113797D01*
X158392841Y-94933993D01*
X158452024Y-94738895D01*
X158467000Y-94586838D01*
X158467000Y-94586829D01*
X158472006Y-94536001D01*
X158467000Y-94485173D01*
X158467000Y-91642354D01*
X158557518Y-91669812D01*
X158682000Y-91682072D01*
X159146250Y-91679000D01*
X159305000Y-91520250D01*
X159305000Y-90171000D01*
X159285000Y-90171000D01*
X159285000Y-89917000D01*
X159305000Y-89917000D01*
X159305000Y-89897000D01*
X159559000Y-89897000D01*
X159559000Y-89917000D01*
X159579000Y-89917000D01*
X159579000Y-90171000D01*
X159559000Y-90171000D01*
X159559000Y-91520250D01*
X159717750Y-91679000D01*
X160182000Y-91682072D01*
X160306482Y-91669812D01*
X160426180Y-91633502D01*
X160432000Y-91630391D01*
X160437820Y-91633502D01*
X160509000Y-91655094D01*
X160509000Y-92760837D01*
X160509001Y-92760847D01*
X160509000Y-96215172D01*
X160503994Y-96266000D01*
X160509000Y-96316828D01*
X160509000Y-96316837D01*
X160523976Y-96468894D01*
X160583159Y-96663992D01*
X160679266Y-96843797D01*
X160808604Y-97001396D01*
X160848097Y-97033807D01*
X162554197Y-98739908D01*
X162586604Y-98779396D01*
X162626092Y-98811803D01*
X162744202Y-98908734D01*
X162821393Y-98949993D01*
X162924007Y-99004841D01*
X163119105Y-99064024D01*
X163271162Y-99079000D01*
X163271165Y-99079000D01*
X163322000Y-99084007D01*
X163372835Y-99079000D01*
X164784809Y-99079000D01*
X164826815Y-99130185D01*
X164923506Y-99209537D01*
X165033820Y-99268502D01*
X165153518Y-99304812D01*
X165278000Y-99317072D01*
X168479001Y-99317072D01*
X168479001Y-99556773D01*
X167163750Y-99559000D01*
X167005000Y-99717750D01*
X167005000Y-100742000D01*
X167025000Y-100742000D01*
X167025000Y-100996000D01*
X167005000Y-100996000D01*
X167005000Y-102020250D01*
X167163750Y-102179000D01*
X168479001Y-102181227D01*
X168479001Y-107011000D01*
X162819930Y-107011000D01*
X162817000Y-106329750D01*
X162658250Y-106171000D01*
X161559000Y-106171000D01*
X161559000Y-106191000D01*
X161305000Y-106191000D01*
X161305000Y-106171000D01*
X161285000Y-106171000D01*
X161285000Y-105917000D01*
X161305000Y-105917000D01*
X161305000Y-104567750D01*
X161559000Y-104567750D01*
X161559000Y-105917000D01*
X162658250Y-105917000D01*
X162817000Y-105758250D01*
X162820072Y-105044000D01*
X162807812Y-104919518D01*
X162771502Y-104799820D01*
X162712537Y-104689506D01*
X162633185Y-104592815D01*
X162536494Y-104513463D01*
X162426180Y-104454498D01*
X162306482Y-104418188D01*
X162182000Y-104405928D01*
X161717750Y-104409000D01*
X161559000Y-104567750D01*
X161305000Y-104567750D01*
X161146250Y-104409000D01*
X160682000Y-104405928D01*
X160557518Y-104418188D01*
X160547000Y-104421379D01*
X160547000Y-104215958D01*
X160562134Y-104193308D01*
X160651461Y-103977652D01*
X160697000Y-103748712D01*
X160697000Y-103515288D01*
X160651461Y-103286348D01*
X160562134Y-103070692D01*
X160432450Y-102876606D01*
X160267394Y-102711550D01*
X160073308Y-102581866D01*
X159857652Y-102492539D01*
X159628712Y-102447000D01*
X159395288Y-102447000D01*
X159166348Y-102492539D01*
X158950692Y-102581866D01*
X158756606Y-102711550D01*
X158591550Y-102876606D01*
X158461866Y-103070692D01*
X158372539Y-103286348D01*
X158327000Y-103515288D01*
X158327000Y-103666827D01*
X158297682Y-103611976D01*
X158296734Y-103610202D01*
X158199803Y-103492092D01*
X158167396Y-103452604D01*
X158127908Y-103420197D01*
X156251711Y-101544000D01*
X164139928Y-101544000D01*
X164152188Y-101668482D01*
X164188498Y-101788180D01*
X164247463Y-101898494D01*
X164326815Y-101995185D01*
X164423506Y-102074537D01*
X164533820Y-102133502D01*
X164653518Y-102169812D01*
X164778000Y-102182072D01*
X166592250Y-102179000D01*
X166751000Y-102020250D01*
X166751000Y-100996000D01*
X164301750Y-100996000D01*
X164143000Y-101154750D01*
X164139928Y-101544000D01*
X156251711Y-101544000D01*
X154901711Y-100194000D01*
X164139928Y-100194000D01*
X164143000Y-100583250D01*
X164301750Y-100742000D01*
X166751000Y-100742000D01*
X166751000Y-99717750D01*
X166592250Y-99559000D01*
X164778000Y-99555928D01*
X164653518Y-99568188D01*
X164533820Y-99604498D01*
X164423506Y-99663463D01*
X164326815Y-99742815D01*
X164247463Y-99839506D01*
X164188498Y-99949820D01*
X164152188Y-100069518D01*
X164139928Y-100194000D01*
X154901711Y-100194000D01*
X153325807Y-98618097D01*
X153293396Y-98578604D01*
X153135797Y-98449266D01*
X152955993Y-98353159D01*
X152760895Y-98293976D01*
X152608838Y-98279000D01*
X152608828Y-98279000D01*
X152558000Y-98273994D01*
X152507172Y-98279000D01*
X142160711Y-98279000D01*
X140590775Y-96709065D01*
X140585461Y-96682348D01*
X140496134Y-96466692D01*
X140415157Y-96345500D01*
X141130928Y-96345500D01*
X141143188Y-96469982D01*
X141179498Y-96589680D01*
X141238463Y-96699994D01*
X141317815Y-96796685D01*
X141414506Y-96876037D01*
X141524820Y-96935002D01*
X141644518Y-96971312D01*
X141769000Y-96983572D01*
X142208250Y-96980500D01*
X142367000Y-96821750D01*
X142367000Y-95885000D01*
X142621000Y-95885000D01*
X142621000Y-96821750D01*
X142779750Y-96980500D01*
X143219000Y-96983572D01*
X143343482Y-96971312D01*
X143463180Y-96935002D01*
X143573494Y-96876037D01*
X143670185Y-96796685D01*
X143749537Y-96699994D01*
X143808502Y-96589680D01*
X143844812Y-96469982D01*
X143857072Y-96345500D01*
X143854000Y-96043750D01*
X143695250Y-95885000D01*
X142621000Y-95885000D01*
X142367000Y-95885000D01*
X141292750Y-95885000D01*
X141134000Y-96043750D01*
X141130928Y-96345500D01*
X140415157Y-96345500D01*
X140366450Y-96272606D01*
X140201394Y-96107550D01*
X140007308Y-95977866D01*
X139791652Y-95888539D01*
X139562712Y-95843000D01*
X139329288Y-95843000D01*
X139100348Y-95888539D01*
X138884692Y-95977866D01*
X138690606Y-96107550D01*
X138525550Y-96272606D01*
X138395866Y-96466692D01*
X138306539Y-96682348D01*
X138261000Y-96911288D01*
X138261000Y-96919290D01*
X138050775Y-96709065D01*
X138045461Y-96682348D01*
X137956134Y-96466692D01*
X137826450Y-96272606D01*
X137661394Y-96107550D01*
X137467308Y-95977866D01*
X137251652Y-95888539D01*
X137022712Y-95843000D01*
X136789288Y-95843000D01*
X136560348Y-95888539D01*
X136344692Y-95977866D01*
X136150606Y-96107550D01*
X135985550Y-96272606D01*
X135855866Y-96466692D01*
X135766539Y-96682348D01*
X135721000Y-96911288D01*
X135721000Y-96919290D01*
X135510775Y-96709065D01*
X135505461Y-96682348D01*
X135416134Y-96466692D01*
X135286450Y-96272606D01*
X135121394Y-96107550D01*
X134927308Y-95977866D01*
X134711652Y-95888539D01*
X134482712Y-95843000D01*
X134249288Y-95843000D01*
X134020348Y-95888539D01*
X133804692Y-95977866D01*
X133610606Y-96107550D01*
X133445550Y-96272606D01*
X133315866Y-96466692D01*
X133226539Y-96682348D01*
X133181000Y-96911288D01*
X133181000Y-97144712D01*
X133226539Y-97373652D01*
X133315866Y-97589308D01*
X133445550Y-97783394D01*
X133610606Y-97948450D01*
X133804692Y-98078134D01*
X134020348Y-98167461D01*
X134047065Y-98172775D01*
X138678196Y-102803907D01*
X138710604Y-102843396D01*
X138750092Y-102875803D01*
X138868202Y-102972734D01*
X138938649Y-103010388D01*
X139048007Y-103068841D01*
X139243105Y-103128024D01*
X139395162Y-103143000D01*
X139395165Y-103143000D01*
X139446000Y-103148007D01*
X139496835Y-103143000D01*
X150193290Y-103143000D01*
X151456217Y-104405928D01*
X150682000Y-104405928D01*
X150557518Y-104418188D01*
X150437820Y-104454498D01*
X150432000Y-104457609D01*
X150426180Y-104454498D01*
X150306482Y-104418188D01*
X150182000Y-104405928D01*
X148682000Y-104405928D01*
X148557518Y-104418188D01*
X148437820Y-104454498D01*
X148432000Y-104457609D01*
X148426180Y-104454498D01*
X148306482Y-104418188D01*
X148182000Y-104405928D01*
X147717750Y-104409000D01*
X147559000Y-104567750D01*
X147559000Y-105917000D01*
X147579000Y-105917000D01*
X147579000Y-106171000D01*
X147559000Y-106171000D01*
X147559000Y-106191000D01*
X147305000Y-106191000D01*
X147305000Y-106171000D01*
X146205750Y-106171000D01*
X146047000Y-106329750D01*
X146044070Y-107011000D01*
X142483888Y-107011000D01*
X142665727Y-106935680D01*
X142900759Y-106778637D01*
X143100637Y-106578759D01*
X143257680Y-106343727D01*
X143365853Y-106082574D01*
X143421000Y-105805335D01*
X143421000Y-105522665D01*
X143365853Y-105245426D01*
X143282420Y-105044000D01*
X146043928Y-105044000D01*
X146047000Y-105758250D01*
X146205750Y-105917000D01*
X147305000Y-105917000D01*
X147305000Y-104567750D01*
X147146250Y-104409000D01*
X146682000Y-104405928D01*
X146557518Y-104418188D01*
X146437820Y-104454498D01*
X146327506Y-104513463D01*
X146230815Y-104592815D01*
X146151463Y-104689506D01*
X146092498Y-104799820D01*
X146056188Y-104919518D01*
X146043928Y-105044000D01*
X143282420Y-105044000D01*
X143257680Y-104984273D01*
X143100637Y-104749241D01*
X142900759Y-104549363D01*
X142665727Y-104392320D01*
X142404574Y-104284147D01*
X142127335Y-104229000D01*
X141844665Y-104229000D01*
X141567426Y-104284147D01*
X141306273Y-104392320D01*
X141071241Y-104549363D01*
X140871363Y-104749241D01*
X140716000Y-104981759D01*
X140560637Y-104749241D01*
X140360759Y-104549363D01*
X140125727Y-104392320D01*
X139864574Y-104284147D01*
X139587335Y-104229000D01*
X139304665Y-104229000D01*
X139027426Y-104284147D01*
X138766273Y-104392320D01*
X138531241Y-104549363D01*
X138331363Y-104749241D01*
X138176000Y-104981759D01*
X138020637Y-104749241D01*
X137820759Y-104549363D01*
X137585727Y-104392320D01*
X137324574Y-104284147D01*
X137047335Y-104229000D01*
X136764665Y-104229000D01*
X136487426Y-104284147D01*
X136226273Y-104392320D01*
X135991241Y-104549363D01*
X135791363Y-104749241D01*
X135636000Y-104981759D01*
X135480637Y-104749241D01*
X135280759Y-104549363D01*
X135045727Y-104392320D01*
X134784574Y-104284147D01*
X134507335Y-104229000D01*
X134224665Y-104229000D01*
X133947426Y-104284147D01*
X133686273Y-104392320D01*
X133451241Y-104549363D01*
X133251363Y-104749241D01*
X133096000Y-104981759D01*
X132940637Y-104749241D01*
X132740759Y-104549363D01*
X132505727Y-104392320D01*
X132244574Y-104284147D01*
X131967335Y-104229000D01*
X131684665Y-104229000D01*
X131407426Y-104284147D01*
X131146273Y-104392320D01*
X130911241Y-104549363D01*
X130711363Y-104749241D01*
X130556000Y-104981759D01*
X130400637Y-104749241D01*
X130200759Y-104549363D01*
X129965727Y-104392320D01*
X129704574Y-104284147D01*
X129427335Y-104229000D01*
X129144665Y-104229000D01*
X128867426Y-104284147D01*
X128606273Y-104392320D01*
X128371241Y-104549363D01*
X128171363Y-104749241D01*
X128016000Y-104981759D01*
X127860637Y-104749241D01*
X127660759Y-104549363D01*
X127425727Y-104392320D01*
X127164574Y-104284147D01*
X126887335Y-104229000D01*
X126604665Y-104229000D01*
X126327426Y-104284147D01*
X126066273Y-104392320D01*
X125831241Y-104549363D01*
X125631363Y-104749241D01*
X125476000Y-104981759D01*
X125320637Y-104749241D01*
X125120759Y-104549363D01*
X124885727Y-104392320D01*
X124624574Y-104284147D01*
X124347335Y-104229000D01*
X124064665Y-104229000D01*
X123787426Y-104284147D01*
X123526273Y-104392320D01*
X123291241Y-104549363D01*
X123091363Y-104749241D01*
X122935085Y-104983128D01*
X122902671Y-104922486D01*
X122658702Y-104850903D01*
X121845605Y-105664000D01*
X122658702Y-106477097D01*
X122902671Y-106405514D01*
X122933194Y-106341008D01*
X122934320Y-106343727D01*
X123091363Y-106578759D01*
X123291241Y-106778637D01*
X123526273Y-106935680D01*
X123708112Y-107011000D01*
X122160941Y-107011000D01*
X122282292Y-106967603D01*
X122407514Y-106900671D01*
X122479097Y-106656702D01*
X121666000Y-105843605D01*
X120852903Y-106656702D01*
X120924486Y-106900671D01*
X121157655Y-107011000D01*
X119620941Y-107011000D01*
X119742292Y-106967603D01*
X119867514Y-106900671D01*
X119939097Y-106656702D01*
X119126000Y-105843605D01*
X118312903Y-106656702D01*
X118384486Y-106900671D01*
X118617655Y-107011000D01*
X117083888Y-107011000D01*
X117265727Y-106935680D01*
X117500759Y-106778637D01*
X117700637Y-106578759D01*
X117856915Y-106344872D01*
X117889329Y-106405514D01*
X118133298Y-106477097D01*
X118946395Y-105664000D01*
X119305605Y-105664000D01*
X120118702Y-106477097D01*
X120362671Y-106405514D01*
X120393971Y-106339364D01*
X120429329Y-106405514D01*
X120673298Y-106477097D01*
X121486395Y-105664000D01*
X120673298Y-104850903D01*
X120429329Y-104922486D01*
X120398029Y-104988636D01*
X120362671Y-104922486D01*
X120118702Y-104850903D01*
X119305605Y-105664000D01*
X118946395Y-105664000D01*
X118133298Y-104850903D01*
X117889329Y-104922486D01*
X117858806Y-104986992D01*
X117857680Y-104984273D01*
X117700637Y-104749241D01*
X117622694Y-104671298D01*
X118312903Y-104671298D01*
X119126000Y-105484395D01*
X119939097Y-104671298D01*
X120852903Y-104671298D01*
X121666000Y-105484395D01*
X122479097Y-104671298D01*
X122407514Y-104427329D01*
X122152004Y-104306429D01*
X121877816Y-104237700D01*
X121595488Y-104223783D01*
X121315870Y-104265213D01*
X121049708Y-104360397D01*
X120924486Y-104427329D01*
X120852903Y-104671298D01*
X119939097Y-104671298D01*
X119867514Y-104427329D01*
X119612004Y-104306429D01*
X119337816Y-104237700D01*
X119055488Y-104223783D01*
X118775870Y-104265213D01*
X118509708Y-104360397D01*
X118384486Y-104427329D01*
X118312903Y-104671298D01*
X117622694Y-104671298D01*
X117500759Y-104549363D01*
X117265727Y-104392320D01*
X117004574Y-104284147D01*
X116727335Y-104229000D01*
X116444665Y-104229000D01*
X116167426Y-104284147D01*
X115906273Y-104392320D01*
X115671241Y-104549363D01*
X115472643Y-104747961D01*
X115471812Y-104739518D01*
X115435502Y-104619820D01*
X115376537Y-104509506D01*
X115297185Y-104412815D01*
X115200494Y-104333463D01*
X115090180Y-104274498D01*
X114970482Y-104238188D01*
X114846000Y-104225928D01*
X113246000Y-104225928D01*
X113121518Y-104238188D01*
X113001820Y-104274498D01*
X112891506Y-104333463D01*
X112794815Y-104412815D01*
X112715463Y-104509506D01*
X112656498Y-104619820D01*
X112620188Y-104739518D01*
X112607928Y-104864000D01*
X112607928Y-106464000D01*
X112620188Y-106588482D01*
X112656498Y-106708180D01*
X112715463Y-106818494D01*
X112794815Y-106915185D01*
X112891506Y-106994537D01*
X112922306Y-107011000D01*
X110921000Y-107011000D01*
X110921000Y-96163110D01*
X111842524Y-96163110D01*
X111963845Y-96393000D01*
X113157000Y-96393000D01*
X113157000Y-95199186D01*
X113411000Y-95199186D01*
X113411000Y-96393000D01*
X114604155Y-96393000D01*
X114725476Y-96163110D01*
X114680825Y-96015901D01*
X114555641Y-95753080D01*
X114381588Y-95519731D01*
X114165355Y-95324822D01*
X113915252Y-95175843D01*
X113640891Y-95078519D01*
X113411000Y-95199186D01*
X113157000Y-95199186D01*
X112927109Y-95078519D01*
X112652748Y-95175843D01*
X112402645Y-95324822D01*
X112186412Y-95519731D01*
X112012359Y-95753080D01*
X111887175Y-96015901D01*
X111842524Y-96163110D01*
X110921000Y-96163110D01*
X110921000Y-94004500D01*
X115975928Y-94004500D01*
X115979000Y-95081250D01*
X116137750Y-95240000D01*
X118237000Y-95240000D01*
X118237000Y-93528250D01*
X118491000Y-93528250D01*
X118491000Y-95240000D01*
X120590250Y-95240000D01*
X120749000Y-95081250D01*
X120752072Y-94004500D01*
X120739812Y-93880018D01*
X120703502Y-93760320D01*
X120644537Y-93650006D01*
X120565185Y-93553315D01*
X120468494Y-93473963D01*
X120358180Y-93414998D01*
X120238482Y-93378688D01*
X120114000Y-93366428D01*
X118649750Y-93369500D01*
X118491000Y-93528250D01*
X118237000Y-93528250D01*
X118078250Y-93369500D01*
X116614000Y-93366428D01*
X116489518Y-93378688D01*
X116369820Y-93414998D01*
X116259506Y-93473963D01*
X116162815Y-93553315D01*
X116083463Y-93650006D01*
X116024498Y-93760320D01*
X115988188Y-93880018D01*
X115975928Y-94004500D01*
X110921000Y-94004500D01*
X110921000Y-89077000D01*
X113548112Y-89077000D01*
X113366273Y-89152320D01*
G37*
%TD.AperFunction*%
D21*
X168479000Y-93906773D02*
X167163750Y-93909000D01*
X167005000Y-94067750D01*
X167005000Y-95092000D01*
X167025000Y-95092000D01*
X167025000Y-95346000D01*
X167005000Y-95346000D01*
X167005000Y-96370250D01*
X167163750Y-96529000D01*
X168479000Y-96531227D01*
X168479000Y-96770928D01*
X165278000Y-96770928D01*
X165153518Y-96783188D01*
X165033820Y-96819498D01*
X164923506Y-96878463D01*
X164826815Y-96957815D01*
X164784809Y-97009000D01*
X163750711Y-97009000D01*
X162635711Y-95894000D01*
X164139928Y-95894000D01*
X164152188Y-96018482D01*
X164188498Y-96138180D01*
X164247463Y-96248494D01*
X164326815Y-96345185D01*
X164423506Y-96424537D01*
X164533820Y-96483502D01*
X164653518Y-96519812D01*
X164778000Y-96532072D01*
X166592250Y-96529000D01*
X166751000Y-96370250D01*
X166751000Y-95346000D01*
X164301750Y-95346000D01*
X164143000Y-95504750D01*
X164139928Y-95894000D01*
X162635711Y-95894000D01*
X162579000Y-95837290D01*
X162579000Y-94544000D01*
X164139928Y-94544000D01*
X164143000Y-94933250D01*
X164301750Y-95092000D01*
X166751000Y-95092000D01*
X166751000Y-94067750D01*
X166592250Y-93909000D01*
X164778000Y-93905928D01*
X164653518Y-93918188D01*
X164533820Y-93954498D01*
X164423506Y-94013463D01*
X164326815Y-94092815D01*
X164247463Y-94189506D01*
X164188498Y-94299820D01*
X164152188Y-94419518D01*
X164139928Y-94544000D01*
X162579000Y-94544000D01*
X162579000Y-91539653D01*
X162633185Y-91495185D01*
X162712537Y-91398494D01*
X162771502Y-91288180D01*
X162807812Y-91168482D01*
X162820072Y-91044000D01*
X162820072Y-89077000D01*
X168479000Y-89077000D01*
X168479000Y-93906773D01*
%TA.AperFunction,Conductor*%
D22*
G36*
X168479000Y-93906773D02*
G01*
X167163750Y-93909000D01*
X167005000Y-94067750D01*
X167005000Y-95092000D01*
X167025000Y-95092000D01*
X167025000Y-95346000D01*
X167005000Y-95346000D01*
X167005000Y-96370250D01*
X167163750Y-96529000D01*
X168479000Y-96531227D01*
X168479000Y-96770928D01*
X165278000Y-96770928D01*
X165153518Y-96783188D01*
X165033820Y-96819498D01*
X164923506Y-96878463D01*
X164826815Y-96957815D01*
X164784809Y-97009000D01*
X163750711Y-97009000D01*
X162635711Y-95894000D01*
X164139928Y-95894000D01*
X164152188Y-96018482D01*
X164188498Y-96138180D01*
X164247463Y-96248494D01*
X164326815Y-96345185D01*
X164423506Y-96424537D01*
X164533820Y-96483502D01*
X164653518Y-96519812D01*
X164778000Y-96532072D01*
X166592250Y-96529000D01*
X166751000Y-96370250D01*
X166751000Y-95346000D01*
X164301750Y-95346000D01*
X164143000Y-95504750D01*
X164139928Y-95894000D01*
X162635711Y-95894000D01*
X162579000Y-95837290D01*
X162579000Y-94544000D01*
X164139928Y-94544000D01*
X164143000Y-94933250D01*
X164301750Y-95092000D01*
X166751000Y-95092000D01*
X166751000Y-94067750D01*
X166592250Y-93909000D01*
X164778000Y-93905928D01*
X164653518Y-93918188D01*
X164533820Y-93954498D01*
X164423506Y-94013463D01*
X164326815Y-94092815D01*
X164247463Y-94189506D01*
X164188498Y-94299820D01*
X164152188Y-94419518D01*
X164139928Y-94544000D01*
X162579000Y-94544000D01*
X162579000Y-91539653D01*
X162633185Y-91495185D01*
X162712537Y-91398494D01*
X162771502Y-91288180D01*
X162807812Y-91168482D01*
X162820072Y-91044000D01*
X162820072Y-89077000D01*
X168479000Y-89077000D01*
X168479000Y-93906773D01*
G37*
%TD.AperFunction*%
%TD*%
M02*
